<?xml version="1.0" standalone="no"?>
<!DOCTYPE svg PUBLIC "-//W3C//DTD SVG 20010904//EN"
 "http://www.w3.org/TR/2001/REC-SVG-20010904/DTD/svg10.dtd">
<svg version="1.0" xmlns="http://www.w3.org/2000/svg"
 width="427.000000pt" height="92.000000pt" viewBox="0 0 427.000000 92.000000"
 preserveAspectRatio="xMidYMid meet">

<g transform="translate(0.000000,92.000000) scale(0.100000,-0.100000)"
fill="#000000" stroke="none">
<path d="M190 909 c-39 -15 -88 -69 -96 -103 -4 -17 -26 -148 -49 -291 -28
-178 -39 -269 -33 -290 9 -35 60 -85 87 -85 24 0 25 5 46 145 20 137 23 145
43 145 55 0 115 -77 112 -144 -4 -64 1 -79 34 -112 46 -46 73 -45 83 4 4 20 8
67 8 104 0 58 -4 72 -31 111 l-31 44 34 18 c46 25 71 70 87 154 15 80 13 83
-47 57 -43 -17 -84 -67 -97 -116 -6 -22 -20 -46 -33 -55 -29 -20 -127 -21
-127 -1 0 8 14 101 30 206 17 105 30 198 30 206 0 16 -14 17 -50 3z"/>
<path d="M1715 906 c-33 -14 -80 -64 -89 -93 -11 -35 -86 -532 -86 -567 0 -25
8 -45 29 -68 l29 -33 120 -3 c105 -3 125 -1 160 17 52 27 78 71 92 155 6 38 9
70 8 71 -2 2 -20 -3 -42 -10 -52 -18 -94 -61 -107 -110 -14 -52 -34 -73 -75
-81 -39 -7 -84 16 -84 44 0 9 14 106 31 215 l32 197 66 0 c62 0 91 10 91 32 0
4 -34 8 -75 8 -41 0 -75 3 -75 8 0 4 9 58 19 120 20 124 19 126 -44 98z"/>
<path d="M2445 904 c-66 -34 -88 -71 -100 -166 l-7 -57 32 9 c73 21 113 69
125 149 3 25 8 54 11 64 7 22 -20 23 -61 1z"/>
<path d="M3715 906 c-61 -26 -105 -111 -105 -201 0 -22 2 -23 31 -15 76 22
104 58 123 159 15 80 12 84 -49 57z"/>
<path d="M660 669 c-37 -15 -78 -58 -90 -93 -14 -45 -50 -278 -50 -327 0 -33
6 -47 34 -75 l34 -34 118 0 c107 0 121 2 159 25 24 14 49 39 58 58 9 18 28
105 42 192 29 181 25 213 -29 246 -26 16 -49 19 -141 18 -60 0 -121 -5 -135
-10z m171 -39 c14 -8 19 -21 19 -53 -1 -70 -48 -337 -64 -362 -33 -50 -136
-37 -136 16 0 54 53 347 66 367 24 37 77 52 115 32z"/>
<path d="M1150 658 c-18 -13 -42 -35 -53 -49 -27 -37 -33 -108 -14 -146 16
-31 69 -63 104 -63 37 0 113 -32 124 -52 6 -12 9 -44 6 -71 -5 -58 -39 -97
-85 -97 -46 0 -72 26 -72 72 0 64 -37 112 -95 120 -15 2 -21 -5 -27 -37 -16
-90 -10 -125 26 -161 l34 -34 104 0 c56 0 120 5 140 10 103 29 148 172 74 237
-14 11 -55 28 -91 36 -111 26 -137 55 -116 134 13 49 38 72 82 79 49 8 70 -12
73 -69 4 -58 27 -94 71 -113 19 -8 36 -14 39 -14 2 0 9 31 16 69 9 57 9 74 -4
104 -23 55 -56 67 -189 67 -102 0 -118 -2 -147 -22z"/>
<path d="M2390 657 c-59 -39 -69 -69 -110 -328 -24 -152 -44 -247 -53 -256 -8
-8 -34 -19 -58 -24 -44 -10 -69 -25 -69 -40 0 -18 153 -10 196 10 69 32 78 57
124 346 22 143 43 272 46 288 5 24 2 27 -19 27 -13 0 -39 -10 -57 -23z"/>
<path d="M2616 657 c-60 -33 -73 -66 -103 -251 -25 -158 -26 -168 -10 -201 27
-56 61 -67 196 -63 181 5 199 25 237 257 32 195 32 205 -10 247 l-34 34 -118
0 c-105 0 -124 -3 -158 -23z m178 -23 c37 -14 38 -39 10 -217 -14 -95 -33
-182 -41 -195 -28 -45 -111 -52 -133 -12 -12 23 42 373 61 397 23 27 70 40
103 27z"/>
<path d="M3126 657 c-60 -33 -73 -66 -102 -250 -23 -144 -25 -170 -14 -198 22
-53 61 -69 169 -69 l93 0 -7 -27 c-14 -59 -34 -68 -163 -71 -109 -4 -142 -11
-142 -33 0 -5 71 -9 158 -9 144 0 162 2 202 22 25 13 53 37 63 55 12 21 33
128 62 313 25 154 45 283 45 285 0 23 -101 -24 -125 -57 l-17 -23 7 25 c4 14
11 29 16 34 20 22 4 26 -98 26 -93 0 -113 -3 -147 -23z m194 -37 c11 -11 20
-25 20 -31 0 -45 -55 -349 -66 -367 -29 -45 -112 -53 -134 -13 -12 23 42 375
61 398 30 36 90 42 119 13z"/>
<path d="M3664 661 c-64 -39 -71 -61 -114 -327 -24 -148 -45 -254 -53 -262 -8
-7 -34 -18 -58 -23 -44 -10 -69 -25 -69 -40 0 -18 153 -10 196 10 69 31 77 56
123 351 23 146 44 275 46 288 4 18 1 22 -17 22 -13 0 -37 -9 -54 -19z"/>
<path d="M3880 657 c-19 -12 -42 -36 -52 -54 -23 -38 -73 -342 -63 -380 3 -14
19 -38 35 -54 28 -28 31 -29 132 -29 66 0 112 5 128 14 21 11 30 10 53 -1 40
-20 151 -14 155 8 2 12 -7 18 -33 23 -59 11 -60 26 -26 246 17 107 34 207 37
223 l6 27 -170 0 c-159 0 -171 -1 -202 -23z m225 -39 c-2 -13 -16 -99 -30
-193 -29 -191 -34 -207 -70 -231 -32 -21 -90 -12 -105 17 -14 25 34 351 57
387 18 30 46 41 106 41 44 1 47 -1 42 -21z"/>
</g>
</svg>
