<?xml version="1.0" standalone="yes"?>
<svg xmlns="http://www.w3.org/2000/svg" width="500" height="500">
<path style="fill:#18120a; stroke:none;" d="M0 0L0 500L500 500L500 0L0 0z"/>
<path style="fill:#9d9d9d; stroke:none;" d="M41 49L41 60L115 67.1698L183 73C182.988 58.0623 161.962 61.4466 150 60.1659C113.724 56.2821 77.36 51.8696 41 49z"/>
<path style="fill:#cdcdcd; stroke:none;" d="M45 49L45 50L50 50L45 49M56 50L56 51L60 51L56 50M476 50L477 51L476 50M40 51L40 63L41 63L40 51M65 51L65 52L70 52L65 51M464 51L464 52L469 52L464 51z"/>
<path style="fill:#9d9d9d; stroke:none;" d="M389 62C385.825 57.614 378.867 59.7034 374 60.2855C360.813 61.8626 347.266 63.4303 334 64L334 74L435 65.5756L465 62.9614L476 64L477 64L477 51C448.079 51.0797 416.757 55.0623 389 62z"/>
<path style="fill:#cdcdcd; stroke:none;" d="M75 52L75 53L80 53L75 52M453 52L453 53L458 53L453 52M85 53L85 54L89 54L85 53M444 53L444 54L448 54L444 53M94 54L94 55L99 55L94 54M433 54L433 55L438 55L433 54M104 55L104 56L109 56L104 55M422 55L422 56L427 56L422 55M114 56L114 57L119 57L114 56M410 56L410 57L416 57L410 56M124 57L124 58L128 58L124 57M400 57L400 58L405 58L400 57M134 58L134 59L138 59L134 58M388 58L388 59L392 59L388 58z"/>
<path style="fill:#9d9d9d; stroke:none;" d="M392 58L392 59L395 59L392 58z"/>
<path style="fill:#857f77; stroke:none;" d="M388 59L389 62L398 58L388 59z"/>
<path style="fill:#cdcdcd; stroke:none;" d="M143 59L143 60L147 60L143 59M379 59L379 60L383 60L379 59z"/>
<path style="fill:#857f77; stroke:none;" d="M41 60L41 61L44 61L41 60z"/>
<path style="fill:#cdcdcd; stroke:none;" d="M152 60L152 61L157 61L152 60M368 60L368 61L373 61L368 60z"/>
<path style="fill:#5f5e5d; stroke:none;" d="M41 61L41 83L49 92L56 94L55 96L65 100C67.9916 105.183 80.473 109.357 86 108L92 112L97 110L98 113C118.642 108.099 142.003 124.621 160.941 107.942C166.461 103.081 161.987 95.8528 165.028 90.0394C168.491 83.4199 177.305 79.8184 182 74L106 66.8302L41 61z"/>
<path style="fill:#857f77; stroke:none;" d="M50 61L50 62L55 62L50 61z"/>
<path style="fill:#cdcdcd; stroke:none;" d="M162 61L162 62L167 62L162 61M358 61L358 62L362 62L358 61z"/>
<path style="fill:#857f77; stroke:none;" d="M61 62L61 63L66 63L61 62z"/>
<path style="fill:#cdcdcd; stroke:none;" d="M172 62L172 63L177 63L172 62M345 62L345 63L351 63L345 62z"/>
<path style="fill:#857f77; stroke:none;" d="M469 62L469 63L474 63L469 62z"/>
<path style="fill:#5f5e5d; stroke:none;" d="M334 74C337.872 79.4976 344.069 83.864 346.987 90C349.188 94.6297 347.099 100.014 348.303 104.83C350.147 112.201 360.389 115.534 367 114C372.836 120.679 389.481 113.344 397 116L420 111L445 104L470.411 86.5409L476 62L405 68.1698L334 74z"/>
<path style="fill:#9d9d9d; stroke:none;" d="M40 63L40 81L41 81L40 63z"/>
<path style="fill:#857f77; stroke:none;" d="M73 63L73 64L77 64L73 63z"/>
<path style="fill:#cdcdcd; stroke:none;" d="M182 63L183 64L182 63M191 69L192 69L192 64L264 64C258.784 61.8111 251.619 63 246 63L207 63C200.642 63 191.646 60.712 191 69M335 63L335 64L340 64L335 63z"/>
<path style="fill:#857f77; stroke:none;" d="M457 63L457 64L462 64L457 63M83 64L83 65L88 65L83 64z"/>
<path style="fill:#9d9d9d; stroke:none;" d="M192 64L192 74L269.271 73.696L280.004 68.8364L291 68C294.498 78.7971 313.724 72.7915 323 75L323 64L192 64z"/>
<path style="fill:#857f77; stroke:none;" d="M444 64L444 65L449 65L444 64M94.6667 65.3333L95.3333 65.6667L94.6667 65.3333z"/>
<path style="fill:#cdcdcd; stroke:none;" d="M333 65L333 75L334 75L333 65z"/>
<path style="fill:#857f77; stroke:none;" d="M435 65L435 66L438 66L435 65M103 66L103 67L107 67L103 66M423 66L423 67L428 67L423 66M475 66L476 67L475 66M114 67L114 68L118 68L114 67M288 67L289 68L288 67M410 67L410 68L415 68L410 67z"/>
<path style="fill:#9d9d9d; stroke:none;" d="M475 67L476 68L475 67z"/>
<path style="fill:#857f77; stroke:none;" d="M125 68L125 69L130 69L125 68M271 73L271 74L293 74L291 68L271 73z"/>
<path style="fill:#cdcdcd; stroke:none;" d="M322 68L322 74L323 74L322 68M388 68L388 69L392 69L388 68z"/>
<path style="fill:#857f77; stroke:none;" d="M399 68L399 69L403 69L399 68M136 69L136 70L141 70L136 69M388 69L388 70L392 70L388 69M147 70L147 71L151 71L147 70M374 70L374 71L379 71L374 70M474 70L475 71L474 70M157 71L157 72L160 72L157 71M364 71L364 72L368 72L364 71z"/>
<path style="fill:#9d9d9d; stroke:none;" d="M474 71L475 72L474 71z"/>
<path style="fill:#857f77; stroke:none;" d="M167 72L167 73L171 73L167 72M269 72L270 73L269 72M352 72L352 73L357 73L352 72z"/>
<path style="fill:#cdcdcd; stroke:none;" d="M474 72L475 73L474 72z"/>
<path style="fill:#857f77; stroke:none;" d="M178 73L178 74L183 74L178 73M267 73L268 74L267 73z"/>
<path style="fill:#9d9d9d; stroke:none;" d="M287 73L288 74L287 73z"/>
<path style="fill:#857f77; stroke:none;" d="M340 73L340 74L345 74L340 73z"/>
<path style="fill:#9d9d9d; stroke:none;" d="M182 74L183 75L182 74z"/>
<path style="fill:#5f5e5d; stroke:none;" d="M192 74C196.419 85.3926 199 93.7126 199 106C201.914 105.417 209.602 111.592 209 114C216.231 114.083 223.659 118.417 231 119.561C252.666 122.938 291.476 125.087 307.426 107.402C312.021 102.307 309.607 96.7432 311.854 91C314.084 85.302 318.794 80.1991 322 75L192 74z"/>
<path style="fill:#857f77; stroke:none;" d="M314 74L315 75L314 74M317 74L317 75L322 75L317 74M473 74L474 75L473 74z"/>
<path style="fill:#cdcdcd; stroke:none;" d="M181 75L182 76L181 75z"/>
<path style="fill:#9d9d9d; stroke:none;" d="M192 75L193 76L192 75z"/>
<path style="fill:#cdcdcd; stroke:none;" d="M334 75L335 76L334 75z"/>
<path style="fill:#9d9d9d; stroke:none;" d="M473 75L474 76L473 75z"/>
<path style="fill:#cdcdcd; stroke:none;" d="M180 76L181 77L180 76M335 76L336 77L335 76M473 76L474 77L473 76z"/>
<path style="fill:#857f77; stroke:none;" d="M178 77L179 78L178 77M193 77L194 78L193 77z"/>
<path style="fill:#cdcdcd; stroke:none;" d="M320 77L321 78L320 77M336 77L337 78L336 77z"/>
<path style="fill:#9d9d9d; stroke:none;" d="M177 78L178 79L177 78z"/>
<path style="fill:#cdcdcd; stroke:none;" d="M193 78L194 79L193 78z"/>
<path style="fill:#857f77; stroke:none;" d="M319 78L320 79L319 78z"/>
<path style="fill:#9d9d9d; stroke:none;" d="M337 78L338 79L337 78z"/>
<path style="fill:#857f77; stroke:none;" d="M472 78L473 79L472 78z"/>
<path style="fill:#9d9d9d; stroke:none;" d="M176 79L177 80L176 79z"/>
<path style="fill:#857f77; stroke:none;" d="M338 79L339 80L338 79z"/>
<path style="fill:#9d9d9d; stroke:none;" d="M472 79L473 80L472 79z"/>
<path style="fill:#cdcdcd; stroke:none;" d="M175 80L176 81L175 80z"/>
<path style="fill:#9d9d9d; stroke:none;" d="M194 80L195 81L194 80M318 80L319 81L318 80z"/>
<path style="fill:#857f77; stroke:none;" d="M339 80L340 81L339 80z"/>
<path style="fill:#cdcdcd; stroke:none;" d="M472 80L473 81L472 80M40 81L40 85L41 85L40 81z"/>
<path style="fill:#857f77; stroke:none;" d="M317 81L318 82L317 81M340 81L341 82L340 81M172 82L173 83L172 82M195 82L196 83L195 82z"/>
<path style="fill:#9d9d9d; stroke:none;" d="M341 82L342 83L341 82z"/>
<path style="fill:#857f77; stroke:none;" d="M41 83C41 97.6714 43 112.323 43 127C43 130.999 42.0033 140.312 47 141L46 144L49 143L49 150L50 150L51 147L55 154L51 152L54 154C53.067 156.954 51.0803 159.525 55 160L55 161L55 179L56 179L55 154L95 155.015L156 157C156 189.017 158 221.006 158 253C158 276.714 155.676 303.709 160 327L169 326L167.999 289.999L167 261C164.393 259.436 164.65 258.413 167 259L164 106C151.973 111.8 143.747 115.702 130 115.337C119.621 115.062 108.192 109.988 98 113L97 110L92 112L86 108C79.3314 108.403 69.6401 104.883 65 100L55 96L56 94L49 92L41 83z"/>
<path style="fill:#9d9d9d; stroke:none;" d="M171 83L172 84L171 83z"/>
<path style="fill:#cdcdcd; stroke:none;" d="M195 83L196 84L195 83z"/>
<path style="fill:#9d9d9d; stroke:none;" d="M316 83L317 84L316 83z"/>
<path style="fill:#857f77; stroke:none;" d="M342 83L343 84L342 83z"/>
<path style="fill:#cdcdcd; stroke:none;" d="M170 84L171 85L170 84M169 85L170 86L169 85M196 85L197 86L196 85z"/>
<path style="fill:#857f77; stroke:none;" d="M167 86L168 87L167 86z"/>
<path style="fill:#cdcdcd; stroke:none;" d="M314 86L315 87L314 86z"/>
<path style="fill:#857f77; stroke:none;" d="M471 86L445 104C439.577 103.749 423.705 106.866 420 111C413.996 110.034 401.914 112.317 397 116L367 114C358.883 114.943 354.54 110.465 348 107L343 326L352 327L354.961 235L355.715 198L356 170L357.603 158.603L380 156.715L457 155C455.92 161.833 455.336 166.504 459 172L460 172L460 163L457 164L457 163L461 162L458 157L458 156L460 152L461 152L461 148L465 149L462 152L465 153L468 150L466 146C470.749 145.343 468.973 135.836 469 132C469.079 120.691 470.956 109.314 471 98C471.015 94.1759 472.502 89.4391 471 86z"/>
<path style="fill:#9d9d9d; stroke:none;" d="M166 87L167 88L166 87M197 87L198 88L197 87z"/>
<path style="fill:#857f77; stroke:none;" d="M313 87L314 88L313 87z"/>
<path style="fill:#cdcdcd; stroke:none;" d="M165 88L166 89L165 88M164 89L164 95L165 95L164 89z"/>
<path style="fill:#9d9d9d; stroke:none;" d="M198 89L199 90L198 89z"/>
<path style="fill:#cdcdcd; stroke:none;" d="M312 89L313 90L312 89z"/>
<path style="fill:#857f77; stroke:none;" d="M311 90L312 91L311 90z"/>
<path style="fill:#9d9d9d; stroke:none;" d="M471 90L471 94L472 94L471 90M311 91L311 95L312 95L311 91M41 93L41 100L42 100L41 93z"/>
<path style="fill:#cdcdcd; stroke:none;" d="M471 94L471 98L472 98L471 94z"/>
<path style="fill:#9d9d9d; stroke:none;" d="M164 95L164 115L165 115L164 95z"/>
<path style="fill:#cdcdcd; stroke:none;" d="M311 95L311 109L312 109L311 95M41 100L41 106L42 106L41 100z"/>
<path style="fill:#857f77; stroke:none;" d="M310 103C295.353 124.962 255.274 123.188 232 119.561C224.804 118.439 215.91 113.01 209 114L200 105C197.496 113.472 199.894 122.383 199.996 131C200.202 148.328 200 165.671 200 183C200 192.213 198.315 203.155 204 211C200.461 212.914 200.781 214.882 204 217L201 217L203 222L203 223L201 225L206 231L202 231L205 233L203 238L206 239L204 242L204 244L206 244L206 250L204 248L203 248L201 251L201 252L205 251L203 253L203 259L205 254L206 254L205 259L208 258L204 260L204 261L205 264L202 263L202 267L205 270L202 268L202.406 311L202.067 328.812L212 336L215 335L224 339L239 340L239 335C245.292 332.912 244.072 314.388 245.626 308C246.424 304.719 247.728 301.421 245 299L243 317L242 317L242 313L241 313L240.397 332.338L230 329.317L202 329L202 325L211 325L209 158L301 158L300 204L308 210L309 210C308.594 188.261 308.596 164.806 310.09 143C310.865 131.673 314.462 113.633 310 103z"/>
<path style="fill:#9d9d9d; stroke:none;" d="M470 105L470 112L471 112L470 105z"/>
<path style="fill:#cdcdcd; stroke:none;" d="M347 106L347 117L348 117L347 106z"/>
<path style="fill:#5f5e5d; stroke:none;" d="M203 109L204 110L203 109z"/>
<path style="fill:#857f77; stroke:none;" d="M98 110L99 111L98 110z"/>
<path style="fill:#cdcdcd; stroke:none;" d="M470 112L470 117L471 117L470 112z"/>
<path style="fill:#9d9d9d; stroke:none;" d="M42 115L42 122L43 122L42 115M347 117L347 132L348 132L347 117z"/>
<path style="fill:#cdcdcd; stroke:none;" d="M42 122L42 129L43 129L42 122z"/>
<path style="fill:#9d9d9d; stroke:none;" d="M199 124L199 148L200 148L199 124M469 125L469 132L470 132L469 125z"/>
<path style="fill:#cdcdcd; stroke:none;" d="M469 132L469 137L470 137L469 132M165 135L165 148L166 148L165 135z"/>
<path style="fill:#9d9d9d; stroke:none;" d="M43 136L45 144C44.0694 146.792 43.1231 147.425 46 148C39.0818 157.877 45.6979 182.266 45.9853 194C47.0394 237.025 50.0784 280.016 51.9606 323C52.5198 335.77 52.8021 348.261 54.1659 361C54.5089 364.204 53.984 371.835 56.7423 373.958C61.8487 377.887 81.7366 371.858 88 371C115.841 367.185 146.969 359.157 175 360L174 357L187 350L186 358L187 358C189.73 351.761 186.629 346.99 182.079 342.464C178.948 339.349 173.779 332.257 168.985 332.538C160.53 333.033 144.219 345.394 136 340L135 340C129.958 344.124 116.972 342.359 110.576 342.284C91.4021 342.058 72.2061 343 53 343L53 334L58 335C57.9226 332.06 57.8091 329.412 61 329L58 325L58 324C60.8913 321.786 59.7896 319.27 59 316L60 316L61 319L62 319C58.4995 308.153 61.0008 289.743 61 278C60.9997 272.571 61.9166 264.459 57 261L57 260L59.9599 248.96L57.8341 218.754L56 206C56.8634 201.7 59.4353 179.739 55 179L55 161L55 160L52 159C53.7214 156.022 53.0188 154.623 51 152L55 154L51 147L50 150L49 150L49 143L46 144L47 141L43 136M49 137L50 138L49 137M46 139L47 140L46 139M310 139L310 162L311 162L310 139M52 143L53 144L52 143M465 143L465 144L468 145L465 143z"/>
<path style="fill:#cdcdcd; stroke:none;" d="M43 144L43 152L44 152L43 144z"/>
<path style="fill:#857f77; stroke:none;" d="M44 144L45 145L44 144z"/>
<path style="fill:#9d9d9d; stroke:none;" d="M462 144L463 145L462 144z"/>
<path style="fill:#857f77; stroke:none;" d="M46 145L46 147L48 145L46 145z"/>
<path style="fill:#9d9d9d; stroke:none;" d="M468 145L466 146L468 150L462 152L465 149L461 148L461 152L460 152L459 150L458 153L458 156L458 157L461 162L457 163L457 164L460 163L460 172L459 172L456 170L458 172C456.707 180.57 455.105 192.899 458 201C453.53 201.562 454.473 212.9 454.148 216.995C453.332 227.28 454.115 237.711 453.264 248.005C452.624 255.742 450.527 262.896 455 270L452 269L451 278L454 277L454 278L451 279L453 292L451 291L451 292L452 312L450 316L452 315L452 316C451.217 318.648 450.865 321.073 454 321L451 324L454 334L453 334L453 331L452 331L453 336L455 334L459 337L461.09 299L466.014 198.96L467.95 161L468 145z"/>
<path style="fill:#857f77; stroke:none;" d="M44 146L45 147L44 146z"/>
<path style="fill:#9d9d9d; stroke:none;" d="M460 146L461 147L460 146M463 146L465 148L463 146M57 147L58 148L57 147z"/>
<path style="fill:#857f77; stroke:none;" d="M44.6667 148.333L45.3333 148.667L44.6667 148.333z"/>
<path style="fill:#9d9d9d; stroke:none;" d="M165 148L165 165L166 165L165 148z"/>
<path style="fill:#cdcdcd; stroke:none;" d="M199 148L199 174L200 174L199 148M346 148L346 161L347 161L346 148z"/>
<path style="fill:#9d9d9d; stroke:none;" d="M54 149L54 150L56 153L57 153L57 149L54 149M454 149L454 152L455 152L454 149M456.333 149.667L456.667 150.333L456.333 149.667z"/>
<path style="fill:#cdcdcd; stroke:none;" d="M468 152L468 157L469 157L468 152z"/>
<path style="fill:#9d9d9d; stroke:none;" d="M58 153L59 154L58 153z"/>
<path style="fill:#857f77; stroke:none;" d="M461 153L462 154L461 153z"/>
<path style="fill:#9d9d9d; stroke:none;" d="M55 154L55 158L56 158L55 154z"/>
<path style="fill:#5f5e5d; stroke:none;" d="M56 154L64 338C59.0994 338.003 54.0068 337.202 53 343C79.4816 338.084 107.216 337.057 134 334.05C139.264 333.459 158.113 334.425 158 328L163 328L163 327C154.205 321.619 159.552 295.375 158.91 286C155.99 243.351 156 199.77 156 157L95 155.004L56 154M352 327L343 326L343 330L450 340L450 339L448 337L454 337L454 336L449 336C449 275.947 452.334 214.862 457 155L380 156.576L357.603 158.028L356 169L355.715 197L354.961 234L352 327z"/>
<path style="fill:#857f77; stroke:none;" d="M48 156L49 157L48 156M50 157L51 158L50 157M462.667 157.333L463.333 157.667L462.667 157.333z"/>
<path style="fill:#18120a; stroke:none;" d="M73 158L74 159L73 158z"/>
<path style="fill:#5f5e5d; stroke:none;" d="M209 158L211 325L202 325L202 329L232 329L231 324L218 324L218 323L230 323L236 302C220.708 290.198 231.311 271.882 243.015 261.108C246.146 258.226 254.141 256.326 255.248 251.938C256.328 247.661 248.694 244.422 246.34 241.826C241.778 236.796 239.576 228.659 239.09 222C238.119 208.682 247.001 206.856 251.394 196.675C254.281 189.981 251.685 177.366 252 170L255 169L256 169L256 195C269.298 197.881 280.576 193.734 290 207L300 204L301 158L209 158z"/>
<path style="fill:#18120a; stroke:none;" d="M449 158L449 165L451 165L451 158L449 158z"/>
<path style="fill:#9d9d9d; stroke:none;" d="M458 158L459 159L458 158M55 159L56 160L55 159z"/>
<path style="fill:#18120a; stroke:none;" d="M106 159L107 160L106 159M110 159L111 160L110 159M115 159L116 160L115 159M407 159L408 160L407 159M412 159L413 160L412 159M414.667 159.333L415.333 159.667L414.667 159.333M417 159L418 160L417 159z"/>
<path style="fill:#857f77; stroke:none;" d="M462 159L463 160L462 159z"/>
<path style="fill:#18120a; stroke:none;" d="M149 160L152 329C156.221 328.095 155 323.654 155 320C155 311.021 155.211 301.895 154.222 293C150.603 260.428 152 225.757 152 193C152 184.973 151.018 176.949 151 169C150.992 165.453 152.564 161.914 149 160M371 160L372 161L371 160z"/>
<path style="fill:#9d9d9d; stroke:none;" d="M459 160L460 161L459 160z"/>
<path style="fill:#18120a; stroke:none;" d="M294 161L295 201L296 201L296 161L294 161z"/>
<path style="fill:#9d9d9d; stroke:none;" d="M346 161L346 175L347 175L346 161M54 162L55 163L54 162z"/>
<path style="fill:#cdcdcd; stroke:none;" d="M310 162L310 185L311 185L310 162z"/>
<path style="fill:#857f77; stroke:none;" d="M69.6667 163.333L70.3333 163.667L69.6667 163.333M221.333 164.667L221.667 165.333L221.333 164.667M467.333 164.667L467.667 165.333L467.333 164.667z"/>
<path style="fill:#cdcdcd; stroke:none;" d="M44 166L44 173L45 173L44 166z"/>
<path style="fill:#18120a; stroke:none;" d="M450 166L451 167L450 166z"/>
<path style="fill:#857f77; stroke:none;" d="M405 168L403 169L403 177L402 177L402 169L401 169L401 182L400 182L400 180L399 180L399 193L400 193L400 191L401 191L401 207L402 207L402 201L405 201L405 188C409.223 187.296 407.316 171.037 405 168M104 169C104 173.059 101.079 190.347 105 191L104 198L104 199L106 217L107 217L109 187L110 187L110 189L111 189C110.988 183.143 112.244 171.516 106 169L106 177L105 177L104 169M255 169L252 170L252 198L253 198L253 188L254 188L255 197L256 197C257.655 189.61 258.987 175.655 255 169z"/>
<path style="fill:#18120a; stroke:none;" d="M450 169L451 170L450 169z"/>
<path style="fill:#857f77; stroke:none;" d="M53 170L55 172L53 170z"/>
<path style="fill:#5f5e5d; stroke:none;" d="M108 171L109 172L108 171z"/>
<path style="fill:#857f77; stroke:none;" d="M447 171L447 176L448 176L447 171M456 172L455 201L458 201L458 172L456 172z"/>
<path style="fill:#18120a; stroke:none;" d="M448 173L448 180L451 179L448 173z"/>
<path style="fill:#857f77; stroke:none;" d="M459 173L460 174L459 173z"/>
<path style="fill:#cdcdcd; stroke:none;" d="M467 173L467 178L468 178L467 173z"/>
<path style="fill:#857f77; stroke:none;" d="M69 175L69 178L70 178L69 175z"/>
<path style="fill:#5f5e5d; stroke:none;" d="M253 175L252 178L255 178L253 175z"/>
<path style="fill:#9d9d9d; stroke:none;" d="M309.333 179.667L309.667 180.333L309.333 179.667z"/>
<path style="fill:#857f77; stroke:none;" d="M458 179L459 180L458 179M148 180L148 186L149 186L148 180z"/>
<path style="fill:#18120a; stroke:none;" d="M449 180L450 181L449 180z"/>
<path style="fill:#cdcdcd; stroke:none;" d="M166 181L166 201L167 201L166 181z"/>
<path style="fill:#857f77; stroke:none;" d="M250 181L251 182L250 181z"/>
<path style="fill:#18120a; stroke:none;" d="M448 181L448 184L449 184L448 181z"/>
<path style="fill:#5f5e5d; stroke:none;" d="M109.333 182.667L109.667 183.333L109.333 182.667M405 182L405 185L406 185L405 182z"/>
<path style="fill:#857f77; stroke:none;" d="M70 183L70 195L71 195L70 183z"/>
<path style="fill:#5f5e5d; stroke:none;" d="M106 183L107 184L106 183z"/>
<path style="fill:#857f77; stroke:none;" d="M221 183L221 187L222 187L221 183M250.333 183.667L250.667 184.333L250.333 183.667z"/>
<path style="fill:#5f5e5d; stroke:none;" d="M253.333 183.667L253.667 184.333L253.333 183.667M400 183L400 189L401 189L400 183M402.333 183.667L402.667 184.333L402.333 183.667M104 184L104 189L105 189L104 184z"/>
<path style="fill:#857f77; stroke:none;" d="M459 184L460 185L459 184z"/>
<path style="fill:#9d9d9d; stroke:none;" d="M202 185L203 186L202 185z"/>
<path style="fill:#857f77; stroke:none;" d="M250.333 186.667L250.667 187.333L250.333 186.667z"/>
<path style="fill:#cdcdcd; stroke:none;" d="M345 187L345 206L346 206L345 187M45 188L45 193L46 193L45 188z"/>
<path style="fill:#5f5e5d; stroke:none;" d="M106 188L106 195L108 195L106 188M253 188L255 197L253 188M402 188L404 200L402 188z"/>
<path style="fill:#18120a; stroke:none;" d="M449 188L448 191L449 188z"/>
<path style="fill:#857f77; stroke:none;" d="M459 188L460 189L459 188M57 190L56 206C59.4441 202.99 58.674 193.989 57 190M110 190L110 197L111 197L110 190z"/>
<path style="fill:#9d9d9d; stroke:none;" d="M201 190L201 194L202 194L203 190L201 190M204 191L205 192L204 191z"/>
<path style="fill:#857f77; stroke:none;" d="M221 191L221 194L222 194L221 191z"/>
<path style="fill:#9d9d9d; stroke:none;" d="M308 192L309 193L308 192z"/>
<path style="fill:#18120a; stroke:none;" d="M449 192L447 195L447 196C449.649 195.432 450.355 194.412 449 192z"/>
<path style="fill:#857f77; stroke:none;" d="M457 193L458 194L457 193M446 194L446 197L447 197L446 194z"/>
<path style="fill:#cdcdcd; stroke:none;" d="M466 194L466 199L467 199L466 194z"/>
<path style="fill:#9d9d9d; stroke:none;" d="M202.667 195.333L203.333 195.667L202.667 195.333z"/>
<path style="fill:#857f77; stroke:none;" d="M260 195L260 196L265 196L260 195z"/>
<path style="fill:#9d9d9d; stroke:none;" d="M265 195L266 196L265 195z"/>
<path style="fill:#857f77; stroke:none;" d="M266 195L266 196L271 196L266 195M221 196L221 201L222 201L221 196z"/>
<path style="fill:#9d9d9d; stroke:none;" d="M256 196L257 197L256 196z"/>
<path style="fill:#cdcdcd; stroke:none;" d="M257 196.518C246.421 198.778 240.118 206.234 240.004 217C239.971 220.14 239.427 224.668 242.434 226.682C245.352 228.637 249.686 227.858 253 228.289C263.399 229.644 272.585 230.633 282.999 228.177C294.117 225.556 294.22 210.571 287.61 203.185C280.619 195.376 266.671 194.451 257 196.518z"/>
<path style="fill:#857f77; stroke:none;" d="M275 196L276 197L275 196z"/>
<path style="fill:#5f5e5d; stroke:none;" d="M107.333 197.667L107.667 198.333L107.333 197.667z"/>
<path style="fill:#9d9d9d; stroke:none;" d="M201 197L204 205L202 202L206 202L206 201L203 198L205 199L201 197M253 197L254 198L253 197M278 197L279 198L278 197z"/>
<path style="fill:#18120a; stroke:none;" d="M447 197L447 199L449 199L447 197z"/>
<path style="fill:#857f77; stroke:none;" d="M55 198L56 199L55 198M250 198L251 199L250 198M281 198L282 199L281 198z"/>
<path style="fill:#9d9d9d; stroke:none;" d="M308 198L307 200L308 198z"/>
<path style="fill:#857f77; stroke:none;" d="M399 198L400 199L399 198z"/>
<path style="fill:#9d9d9d; stroke:none;" d="M247 200L248 201L247 200M284 200L285 201L284 200M166 201L166 222L167 222L166 201M308 201L309 202L308 201z"/>
<path style="fill:#18120a; stroke:none;" d="M447 201L448 202L447 201z"/>
<path style="fill:#857f77; stroke:none;" d="M454.333 201.667L454.667 202.333L454.333 201.667z"/>
<path style="fill:#18120a; stroke:none;" d="M295.333 202.667L295.667 203.333L295.333 202.667z"/>
<path style="fill:#9d9d9d; stroke:none;" d="M200 203C200 213.838 199.23 224.963 201 235.611C201.644 239.487 199.095 244.949 204 246L204 247L201 247L204 251L203 248L204 248L206 250L204 244L204 242L206 242L206 239L203 238L205 236L205 233L202 231L206 231L201 225L203 223L203 222L201 217L204 217L201 216L204 211L200 203M205 203L208 206L208 205L205 203z"/>
<path style="fill:#857f77; stroke:none;" d="M465 203L466 204L465 203z"/>
<path style="fill:#9d9d9d; stroke:none;" d="M243 204L244 205L243 204z"/>
<path style="fill:#857f77; stroke:none;" d="M296 204L297 205L296 204z"/>
<path style="fill:#9d9d9d; stroke:none;" d="M297 204L298 205L297 204z"/>
<path style="fill:#cdcdcd; stroke:none;" d="M293 208L301 208L308 219C310.736 209.654 300.22 197.462 293 208z"/>
<path style="fill:#9d9d9d; stroke:none;" d="M303 204L304 205L303 204z"/>
<path style="fill:#857f77; stroke:none;" d="M399 204L400 205L399 204M404 204L404 213L405 213L404 204M454 204L454 215L455 215L454 204M71 205L71 216L72 216L71 205M242 205L243 206L242 205M289 205L290 206L289 205z"/>
<path style="fill:#9d9d9d; stroke:none;" d="M294 205L295 206L294 205M305 205L306 206L305 205M309 205L308 219L301 208L290 207L291 210C300.034 209.558 300.81 213.271 299 221L308 225L303 226L305 229L297 229L298 226C291.354 230.307 299.402 236.339 297.583 241.791C294.971 249.614 284.673 250.966 284 261C278.268 259.035 277.405 253.858 272.737 251.028C266.043 246.969 258.055 250.911 253 255L253 256C263.564 253.293 269.598 256.812 278.17 262.298C280.825 263.997 285.28 263.843 286.613 267.148C288.651 272.204 286.112 279.714 286 285L287 285C288.082 272.609 296.932 263.631 305 255L303 262L304 262L305 262L305 258L306 258L307 264L304 263C304.983 265.95 305.487 266.622 303 266L304 274L302 273L305 283L302 282L302 283L302 284L307 283L302 289L305 289L305 304L308 304L309 267L306 254L306 253L309 247L298 248C299.719 242.489 296.922 221.246 305.865 233.971C306.761 235.246 307.335 236.602 308 238L309 238L309 205z"/>
<path style="fill:#18120a; stroke:none;" d="M448 205L447 207L448 205z"/>
<path style="fill:#857f77; stroke:none;" d="M465 205L466 206L465 205M109 206L109 220L110 220L109 206M292 206L293 207L292 206z"/>
<path style="fill:#9d9d9d; stroke:none;" d="M306 206L307 207L306 206M345 206L345 224L346 224L345 206M207 207L208 208L207 207z"/>
<path style="fill:#857f77; stroke:none;" d="M241 207L242 208L241 207M291 207L292 208L291 207M104 208L104 212L105 212L104 208z"/>
<path style="fill:#9d9d9d; stroke:none;" d="M307 208L308 209L307 208z"/>
<path style="fill:#cdcdcd; stroke:none;" d="M46 209L46 213L47 213L46 209z"/>
<path style="fill:#857f77; stroke:none;" d="M292 209L292 210C296.003 211.318 298.691 211.687 300 216L301 216C300.34 210.262 297.128 209.973 292 209z"/>
<path style="fill:#9d9d9d; stroke:none;" d="M209 210L209 218L210 218L209 210M240 210L241 211L240 210z"/>
<path style="fill:#5f5e5d; stroke:none;" d="M292 210L296 215L296 216L293 216L295 220L293 222L293 223L296 225C298.822 216.595 302.81 212.711 292 210z"/>
<path style="fill:#857f77; stroke:none;" d="M400 211L400 217L401 217L400 211z"/>
<path style="fill:#18120a; stroke:none;" d="M447 211L447 213L449 213L449 211L447 211z"/>
<path style="fill:#9d9d9d; stroke:none;" d="M204 212L206 215L204 212z"/>
<path style="fill:#857f77; stroke:none;" d="M239.333 212.667L239.667 213.333L239.333 212.667M104 213L105 214L104 213z"/>
<path style="fill:#9d9d9d; stroke:none;" d="M202 213L203 214L202 213z"/>
<path style="fill:#857f77; stroke:none;" d="M292 213L293 214L292 213M402 213L403 214L402 213M445.333 213.667L445.667 214.333L445.333 213.667M58 214L58 227L59 227L58 214z"/>
<path style="fill:#9d9d9d; stroke:none;" d="M239 214L239 224L240 224L239 214M292 214C291.129 233.018 268.74 230.581 255 228.439C249.912 227.646 245.103 228.568 241 225L240 225C240.495 230.671 242.252 238.737 247.188 242.258C251.332 245.213 258.191 244 263 244C269.108 244 276.275 244.943 281.999 242.347C290.595 238.45 295.581 222.538 292 214z"/>
<path style="fill:#18120a; stroke:none;" d="M447 214L449 216L449 214L447 214z"/>
<path style="fill:#cdcdcd; stroke:none;" d="M465 214L465 218L466 218L465 214z"/>
<path style="fill:#18120a; stroke:none;" d="M293 215L293 216L296 216L293 215z"/>
<path style="fill:#857f77; stroke:none;" d="M403 215L403 220L404 220L403 215z"/>
<path style="fill:#18120a; stroke:none;" d="M446 215L446 219L449 218L446 215z"/>
<path style="fill:#857f77; stroke:none;" d="M300 217L301 218L300 217M71 218L71 222L72 222L71 218M106 218L105 227L106 227L106 218z"/>
<path style="fill:#9d9d9d; stroke:none;" d="M203 218L202 220L203 218z"/>
<path style="fill:#857f77; stroke:none;" d="M221 218L222 219L221 218z"/>
<path style="fill:#18120a; stroke:none;" d="M293 218L294 219L293 218z"/>
<path style="fill:#857f77; stroke:none;" d="M400 218L400 226L401 226L400 218M104 219L104 224L105 224L104 219z"/>
<path style="fill:#9d9d9d; stroke:none;" d="M209.333 219.667L209.667 220.333L209.333 219.667z"/>
<path style="fill:#857f77; stroke:none;" d="M298 219L295 227L298 226L297 229L305 229L303 226L308 225L298 219z"/>
<path style="fill:#18120a; stroke:none;" d="M293 220L293 222L295 220L293 220z"/>
<path style="fill:#857f77; stroke:none;" d="M398.333 220.667L398.667 221.333L398.333 220.667z"/>
<path style="fill:#18120a; stroke:none;" d="M446 220L448 224L446 220z"/>
<path style="fill:#857f77; stroke:none;" d="M55 221L56 222L55 221z"/>
<path style="fill:#9d9d9d; stroke:none;" d="M203 221L203 224L204 224L203 221z"/>
<path style="fill:#857f77; stroke:none;" d="M454 221L455 222L454 221z"/>
<path style="fill:#9d9d9d; stroke:none;" d="M349 222L350 223L349 222z"/>
<path style="fill:#857f77; stroke:none;" d="M403 222L403 225L404 225L403 222M453 222L453 231L454 231L453 222M110 223L111 224L110 223M292 223L292 227L293 227L292 223z"/>
<path style="fill:#18120a; stroke:none;" d="M293 223L293 245L294 245C295.467 239.99 295.785 227.315 293 223z"/>
<path style="fill:#857f77; stroke:none;" d="M239.333 224.667L239.667 225.333L239.333 224.667M398 224L398 227L399 227L398 224z"/>
<path style="fill:#5f5e5d; stroke:none;" d="M294 226L294 231L295 231L294 226M299 226L300 227L299 226z"/>
<path style="fill:#857f77; stroke:none;" d="M305 226L305 227L308 228L305 226z"/>
<path style="fill:#18120a; stroke:none;" d="M446 226L446 231L447 231L446 226z"/>
<path style="fill:#9d9d9d; stroke:none;" d="M161 227L162 228L161 227z"/>
<path style="fill:#5f5e5d; stroke:none;" d="M292 227C290.722 232.523 288.9 238.461 284.671 242.481C281.885 245.131 276.223 246.781 275.567 251.054C275.083 254.205 278.096 259.355 281.806 257.824C292.044 253.598 295.918 236.338 292 227z"/>
<path style="fill:#cdcdcd; stroke:none;" d="M309 227L309 238L308 238C307.316 235.86 301.463 224.657 298.643 230.478C296.822 234.236 298.982 243.2 298 248C302.221 247.667 306.393 245.994 309 250L310 250L309 227z"/>
<path style="fill:#857f77; stroke:none;" d="M403 227L403 238L404 238L403 227z"/>
<path style="fill:#cdcdcd; stroke:none;" d="M47 228L47 235L48 235L47 228z"/>
<path style="fill:#857f77; stroke:none;" d="M58 228L59 229L58 228M398 228L398 237L399 237L398 228M400 228L400 232L401 232L400 228M107 229L107 238L108 238L107 229M110 229L109 238C111.641 235.693 111.296 232.089 110 229M240 229L241 230L240 229M291 229L292 230L291 229M305 229L306 230L305 229M105 230L105 238L106 238L105 230z"/>
<path style="fill:#9d9d9d; stroke:none;" d="M165 230L166 231L165 230z"/>
<path style="fill:#857f77; stroke:none;" d="M295 230L296 231L295 230M294 231L298 242L299 242L294 231z"/>
<path style="fill:#18120a; stroke:none;" d="M359 231L360 232L359 231z"/>
<path style="fill:#857f77; stroke:none;" d="M241.333 232.667L241.667 233.333L241.333 232.667M290 232L291 233L290 232z"/>
<path style="fill:#18120a; stroke:none;" d="M447 232L446 236L447 232z"/>
<path style="fill:#cdcdcd; stroke:none;" d="M464 232L464 238L465 238L464 232z"/>
<path style="fill:#5f5e5d; stroke:none;" d="M294 233L294 237L295 237L294 233z"/>
<path style="fill:#18120a; stroke:none;" d="M359.333 233.667L359.667 234.333L359.333 233.667z"/>
<path style="fill:#857f77; stroke:none;" d="M400 233L400 236L401 236L400 233M58 234L59 244L60 244L58 234z"/>
<path style="fill:#cdcdcd; stroke:none;" d="M200 234L200 268L201 268L200 234z"/>
<path style="fill:#857f77; stroke:none;" d="M289.333 234.667L289.667 235.333L289.333 234.667M201 235L202 236L201 235M242 235L243 236L242 235z"/>
<path style="fill:#cdcdcd; stroke:none;" d="M344 236L344 255L345 255L344 236z"/>
<path style="fill:#9d9d9d; stroke:none;" d="M163 237L164 238L163 237z"/>
<path style="fill:#cdcdcd; stroke:none;" d="M167 237L167 257L168 257L167 237z"/>
<path style="fill:#9d9d9d; stroke:none;" d="M215 237L218 241L218 245L216 250L219 250L219 242L226 242L226 241L219 241L219 237L215 237z"/>
<path style="fill:#857f77; stroke:none;" d="M219 237L219 240L220 240L219 237M288 237L289 238L288 237z"/>
<path style="fill:#5f5e5d; stroke:none;" d="M295 237L294 245L299 243L295 237z"/>
<path style="fill:#857f77; stroke:none;" d="M362 237L360 251L364 251L367 242L361 243L361 242L364 242L362 237M215 238L215 250L216 250L218 245L218 241L215 238M243 238L244 239L243 238M287 238C276.944 246.943 261.599 244 249 244L256 252L257 252C261.845 248.33 269.719 249.762 275 252L287 238z"/>
<path style="fill:#9d9d9d; stroke:none;" d="M362 238L363 241L364 241L364 238L362 238z"/>
<path style="fill:#857f77; stroke:none;" d="M454 238L455 239L454 238M244 239L245 240L244 239M73 240L74 241L73 240z"/>
<path style="fill:#9d9d9d; stroke:none;" d="M163 240L164 241L163 240M345 240L346 241L345 240z"/>
<path style="fill:#18120a; stroke:none;" d="M445 240L445 243L446 243L445 240z"/>
<path style="fill:#857f77; stroke:none;" d="M453.333 240.667L453.667 241.333L453.333 240.667M65.3333 241.667L65.6667 242.333L65.3333 241.667z"/>
<path style="fill:#9d9d9d; stroke:none;" d="M66 241L70 246L70 241L66 241M166 241L167 242L166 241z"/>
<path style="fill:#857f77; stroke:none;" d="M226 241L227 242L226 241M245 241L246 242L245 241z"/>
<path style="fill:#18120a; stroke:none;" d="M359 241L360 242L359 241M447 241L448 242L447 241z"/>
<path style="fill:#857f77; stroke:none;" d="M219 242L219 243L226 243L219 242M246 242L247 243L246 242z"/>
<path style="fill:#9d9d9d; stroke:none;" d="M345.333 242.667L345.667 243.333L345.333 242.667M361 242L361 243L366 243L361 242M367 242L371 244L371 243L367 242z"/>
<path style="fill:#857f77; stroke:none;" d="M368 242L368 243L371 243L368 242M452 242L452 252L453 252L452 242M247.667 243.333L248.333 243.667L247.667 243.333z"/>
<path style="fill:#9d9d9d; stroke:none;" d="M347 243L348 244L347 243z"/>
<path style="fill:#857f77; stroke:none;" d="M66 244L66 249L70 248L70 247L66 244M295 244L296 245L295 244M70.6667 245.333L71.3333 245.667L70.6667 245.333z"/>
<path style="fill:#9d9d9d; stroke:none;" d="M71 246L71 247L79 246L71 246z"/>
<path style="fill:#18120a; stroke:none;" d="M214 245L215 246L214 245z"/>
<path style="fill:#857f77; stroke:none;" d="M293 245L294 246L293 245z"/>
<path style="fill:#cdcdcd; stroke:none;" d="M67 246L67 247L71 247L67 246z"/>
<path style="fill:#857f77; stroke:none;" d="M78 246L79 247L78 246M201 246L201 247L204 247L201 246z"/>
<path style="fill:#9d9d9d; stroke:none;" d="M206 246L207 247L206 246z"/>
<path style="fill:#857f77; stroke:none;" d="M292 246L293 247L292 246z"/>
<path style="fill:#9d9d9d; stroke:none;" d="M165 247L166 248L165 247z"/>
<path style="fill:#857f77; stroke:none;" d="M291 247L292 248L291 247z"/>
<path style="fill:#9d9d9d; stroke:none;" d="M66 255L70 255L70 248C66.4238 249.437 66.1227 251.286 66 255M166 248L167 249L166 248z"/>
<path style="fill:#857f77; stroke:none;" d="M290 248L291 249L290 248M367 248L367 251L368 251L367 248z"/>
<path style="fill:#9d9d9d; stroke:none;" d="M164 249L165 250L164 249z"/>
<path style="fill:#857f77; stroke:none;" d="M289 249L290 250L289 249z"/>
<path style="fill:#18120a; stroke:none;" d="M445.333 249.667L445.667 250.333L445.333 249.667z"/>
<path style="fill:#857f77; stroke:none;" d="M70 250L70 255L71 255L70 250M74 250L74 255L75 255L74 250z"/>
<path style="fill:#9d9d9d; stroke:none;" d="M166 250L167 251L166 250z"/>
<path style="fill:#857f77; stroke:none;" d="M288 250L289 251L288 250M308 250L306 253L306 254L308 260L309 260L308 250z"/>
<path style="fill:#cdcdcd; stroke:none;" d="M48 251L48 259L49 259L48 251z"/>
<path style="fill:#9d9d9d; stroke:none;" d="M163 251L164 252L163 251M204 251L201 252L201 269L205 270L202 267L202 263L205 264L204 261L204 260L208 258L205 259L206 254L205 254L203 259L204 251z"/>
<path style="fill:#857f77; stroke:none;" d="M287 251L288 252L287 251M286 252L287 253L286 252z"/>
<path style="fill:#18120a; stroke:none;" d="M445 252L445 257L446 257L445 252z"/>
<path style="fill:#857f77; stroke:none;" d="M59 253L60 254L59 253z"/>
<path style="fill:#9d9d9d; stroke:none;" d="M165 253L166 254L165 253z"/>
<path style="fill:#857f77; stroke:none;" d="M201 253L202 254L201 253z"/>
<path style="fill:#9d9d9d; stroke:none;" d="M206 253L207 254L206 253z"/>
<path style="fill:#857f77; stroke:none;" d="M255 253L256 254L255 253M285.333 253.667L285.667 254.333L285.333 253.667z"/>
<path style="fill:#cdcdcd; stroke:none;" d="M463 253L463 259L464 259L463 253z"/>
<path style="fill:#857f77; stroke:none;" d="M254 254L255 255L254 254z"/>
<path style="fill:#cdcdcd; stroke:none;" d="M248 269C265.088 281.725 249.747 300.859 246.235 316C245.017 321.253 243.116 330.249 247.434 334.566C253.106 340.239 274.274 337.303 282 336.961C285.369 336.812 290.342 336.677 291.566 332.853C295.538 320.449 286.326 303.681 286.015 291C285.873 285.253 290.427 270.037 286.354 265.596C284.59 263.672 281.27 263.654 279.09 262.298C266.992 254.774 250.408 249.815 239.785 264.015C236.803 268.003 222.679 286.824 229.322 290.933C238.82 296.807 249.936 276.129 248 269z"/>
<path style="fill:#857f77; stroke:none;" d="M275 254L276 255L275 254M305 254L307 256L305 254M365 254L365 260L366 260L365 254M59 255L60 256L59 255M252 255L253 256L252 255M276 255L277 256L276 255M284 255L285 256L284 255M304 255L297 263L300 261L299 325L308 324L306 308L306 307L308 304L305 304L305 289L304 288L302 289L307 283L302 284L302 283L302 282L305 283L302 273L304 274L304 273L303 266C305.294 266.031 304.716 265.168 304 263L307 264L306 258L305 258L305 262L304 262L303 262L304 255z"/>
<path style="fill:#9d9d9d; stroke:none;" d="M344 255L344 270L345 270L346 255L344 255M208 256L209 257L208 256M250.667 256.333L251.333 256.667L250.667 256.333M166 257L167 259L165 258L167 261L167 276L168 276C168 270.909 170.022 260.514 166 257z"/>
<path style="fill:#857f77; stroke:none;" d="M247 257L248 258L247 257z"/>
<path style="fill:#9d9d9d; stroke:none;" d="M248 257L249 258L248 257z"/>
<path style="fill:#857f77; stroke:none;" d="M277 257L278 258L277 257M283 257L279 259L279 260L284 261L283 257M400 257L400 262L401 262L400 257M59 258L57 260L57 261L60 268L61 268L61 258L59 258M109 258L109 263L110 263L109 258M111.333 258.667L111.667 259.333L111.333 258.667M221 258L222 259L221 258z"/>
<path style="fill:#9d9d9d; stroke:none;" d="M245 258L246 259L245 258z"/>
<path style="fill:#857f77; stroke:none;" d="M278 258L279 259L278 258M398 258L398 261L399 261L398 258M402 258L403 259L402 258z"/>
<path style="fill:#18120a; stroke:none;" d="M446 258L446 262L447 262L446 258z"/>
<path style="fill:#857f77; stroke:none;" d="M107 259L107 263L108 263L107 259z"/>
<path style="fill:#9d9d9d; stroke:none;" d="M346 259L347 260L346 259z"/>
<path style="fill:#857f77; stroke:none;" d="M443.333 259.667L443.667 260.333L443.333 259.667M396 260L396 268L397 268L396 260M105 261L105 266L106 266L105 261z"/>
<path style="fill:#5f5e5d; stroke:none;" d="M299 261L293 269C296.612 269 295 278.812 295 282C295 295.995 292.51 312.483 295 326L292 325C292.674 328.144 296.872 329.511 298.5 325.889C300.267 321.958 299 315.246 299 311C299 299.726 298.377 288.253 299.028 277C299.317 271.998 301.609 265.529 299 261z"/>
<path style="fill:#9d9d9d; stroke:none;" d="M346.333 261.667L346.667 262.333L346.333 261.667z"/>
<path style="fill:#857f77; stroke:none;" d="M402 261L403 262L402 261z"/>
<path style="fill:#9d9d9d; stroke:none;" d="M207 262L205 265L207 262z"/>
<path style="fill:#18120a; stroke:none;" d="M444 262L444 269L444 262z"/>
<path style="fill:#857f77; stroke:none;" d="M452.333 262.667L452.667 263.333L452.333 262.667M111 263L111 269L112 269L111 263M365 263L365 266L366 266L365 263M398 263L398 269L399 269L398 263M109 264L109 272L110 272L109 264z"/>
<path style="fill:#9d9d9d; stroke:none;" d="M239 264L240 265L239 264z"/>
<path style="fill:#857f77; stroke:none;" d="M400 264L400 267L401 267L400 264M402 264L402 267L403 267L402 264M107 265L107 276L108 276L107 265M238 265L239 266L238 265M307 265L308 266L307 265M452 265L451 277L452 277L452 269L455 270L452 265M294 266L295 267L294 266M105.333 267.667L105.667 268.333L105.333 267.667z"/>
<path style="fill:#9d9d9d; stroke:none;" d="M237 267L238 268L237 267z"/>
<path style="fill:#857f77; stroke:none;" d="M305 267L304 270L305 270L305 267z"/>
<path style="fill:#18120a; stroke:none;" d="M294 268C290.343 281.196 294.12 297.464 293.056 311.134C292.686 315.875 289.89 323.329 295 326L295 286L294 268z"/>
<path style="fill:#9d9d9d; stroke:none;" d="M346 268L347 269L346 268M236 269L237 270L236 269M248 269C249.454 276.902 242.662 282.571 239 289L249 277L250 277L249 288L245 286L244 296C239.146 288.631 234.147 292.721 227 290C229.827 296.549 235.367 304.413 243 305L242 309L243 309L245 299C248.397 303.882 243.864 323.505 242.853 329.981C242.421 332.753 241.305 333.729 239 335L239 340L224 339L215 335L212 336L201 329C199.135 334.732 190.991 350.974 195.183 356.397C197.252 359.073 203.062 358 206 358L235 358L235 357L233 356L236 355L244 358C247.253 363.155 253.699 360.702 257.436 365.228C263.232 372.249 261.283 396.033 260.941 405C260.41 418.923 243.756 412.511 240 404L239 404C241.251 411.574 257.413 422.156 262.258 410.891C264.565 405.526 262.282 398.546 262.039 393C261.527 381.296 261.288 367.391 264 356L267 356L268 363L269 363L266 353L263 353L262 360L261 360L257 343C265.322 340.729 269.369 340.184 277 345C270.691 348.508 271.065 354.49 270.285 361C268.619 374.93 272.56 388.221 270 402C273.997 402 270.851 409.772 273.5 412.667C279.93 419.694 296.663 409.764 300 404C294.381 407.701 286.452 415.14 279.044 411.643C275.953 410.184 274.474 407.263 274.109 404C273.077 394.788 270.693 375.537 274.032 367.044C276.547 360.65 284.837 362.411 288 356C294.456 357.64 310.311 359.15 316 355C318.857 358.797 318.624 349.807 318.139 348C316.333 341.276 312.151 335.146 309 329L300 335L292 334L291 334C285.542 338.295 276.567 337.292 270 336.59C263.555 335.902 254.868 339.265 249.109 335.258C243.573 331.406 244.793 323.678 246.015 318C248.829 304.924 266.84 278.288 248 269z"/>
<path style="fill:#857f77; stroke:none;" d="M292 269L293 270L292 269M105 270L105 273L106 273L105 270M111 270L111 273L112 273L111 270z"/>
<path style="fill:#9d9d9d; stroke:none;" d="M202 270L206 274L206 273L202 270M205 270L206 271L205 270z"/>
<path style="fill:#857f77; stroke:none;" d="M235 270L236 271L235 270z"/>
<path style="fill:#5f5e5d; stroke:none;" d="M292 270C283.261 287.103 289.587 301.25 291 319L292 319L294 270L292 270z"/>
<path style="fill:#857f77; stroke:none;" d="M291 271L292 272L291 271M304 271L305 272L304 271z"/>
<path style="fill:#9d9d9d; stroke:none;" d="M345 271L346 272L345 271z"/>
<path style="fill:#18120a; stroke:none;" d="M444 271L445 280L446 280L446 271L444 271z"/>
<path style="fill:#857f77; stroke:none;" d="M113.333 272.667L113.667 273.333L113.333 272.667z"/>
<path style="fill:#9d9d9d; stroke:none;" d="M165 272L166 273L165 272M234 272L235 273L234 272z"/>
<path style="fill:#857f77; stroke:none;" d="M399 272L399 275L400 275L399 272z"/>
<path style="fill:#cdcdcd; stroke:none;" d="M49 273L49 280L50 280L49 273z"/>
<path style="fill:#857f77; stroke:none;" d="M109 273L109 277L110 277L109 273z"/>
<path style="fill:#9d9d9d; stroke:none;" d="M201 273L201 276L202 276L201 273z"/>
<path style="fill:#857f77; stroke:none;" d="M233 273L234 274L233 273M305 273L304 275L306 275L305 273M397 273L397 277L398 277L397 273M402 273L402 277L403 277L402 273z"/>
<path style="fill:#9d9d9d; stroke:none;" d="M163 274L164 275L163 274z"/>
<path style="fill:#857f77; stroke:none;" d="M289 274L290 275L289 274z"/>
<path style="fill:#9d9d9d; stroke:none;" d="M350 274L351 275L350 274z"/>
<path style="fill:#cdcdcd; stroke:none;" d="M462 274L462 281L463 281L462 274z"/>
<path style="fill:#857f77; stroke:none;" d="M112.333 275.667L112.667 276.333L112.333 275.667z"/>
<path style="fill:#9d9d9d; stroke:none;" d="M203 275L202 277L204 277L203 275z"/>
<path style="fill:#857f77; stroke:none;" d="M232 275L233 276L232 275M73 277L74 278L73 277M107 277L108 278L107 277z"/>
<path style="fill:#9d9d9d; stroke:none;" d="M231 277L232 278L231 277z"/>
<path style="fill:#857f77; stroke:none;" d="M249 277L247 281L249 280L249 281L246 282C245.501 285.314 246.059 286.38 249 288L249 277M288 277L289 278L288 277M451 279L454 277L451 279M109 279L108 289L109 289L109 279M112 279L113 280L112 279z"/>
<path style="fill:#9d9d9d; stroke:none;" d="M164 279L165 280L164 279M202 279L202 284L205 284L207 280L204 282L202 279M230 279L231 280L230 279z"/>
<path style="fill:#857f77; stroke:none;" d="M402 279L402 283L403 283L402 279M453.333 279.667L453.667 280.333L453.333 279.667M61 280L61 290L62 290L61 280z"/>
<path style="fill:#5f5e5d; stroke:none;" d="M248 280L247 283L248 280z"/>
<path style="fill:#857f77; stroke:none;" d="M287.333 280.667L287.667 281.333L287.333 280.667M112 281L113 282L112 281z"/>
<path style="fill:#9d9d9d; stroke:none;" d="M229 281L230 282L229 281z"/>
<path style="fill:#857f77; stroke:none;" d="M396 281L396 292L397 292L396 281M398 281L398 288L399 288L398 281M400 281L400 285L401 285L400 281z"/>
<path style="fill:#18120a; stroke:none;" d="M444 281L443 285L446 281L444 281z"/>
<path style="fill:#857f77; stroke:none;" d="M451 281L450 298L451 298L451 291L453 292L453 291L451 281M228 282L229 283L228 282M106 283L106 286L107 286L106 283M112 283L112 287L113 287L112 283z"/>
<path style="fill:#9d9d9d; stroke:none;" d="M207 284L208 285L207 284z"/>
<path style="fill:#857f77; stroke:none;" d="M227 284L228 285L227 284z"/>
<path style="fill:#5f5e5d; stroke:none;" d="M244 284C240.789 288.232 240.919 290.182 243 295L244 295L244 284z"/>
<path style="fill:#cdcdcd; stroke:none;" d="M343 284L343 301L344 301L343 284z"/>
<path style="fill:#9d9d9d; stroke:none;" d="M204 285L205 286L204 285M227 285L228 286L227 285z"/>
<path style="fill:#857f77; stroke:none;" d="M243 285L244 286L243 285M286 285L286 289L287 289L286 285M365 285L365 288L366 288L365 285z"/>
<path style="fill:#9d9d9d; stroke:none;" d="M451 285L452 286L451 285M202 286L203 290L204 290L202 286z"/>
<path style="fill:#857f77; stroke:none;" d="M304 286L304 288L306 288L304 286M401 286L402 287L401 286z"/>
<path style="fill:#18120a; stroke:none;" d="M443.333 286.667L443.667 287.333L443.333 286.667z"/>
<path style="fill:#857f77; stroke:none;" d="M403 287L403 292L404 292L403 287M453 287L454 288L453 287z"/>
<path style="fill:#9d9d9d; stroke:none;" d="M166 288L167 289L166 288z"/>
<path style="fill:#857f77; stroke:none;" d="M307 288L305 290L307 293L308 293L307 288z"/>
<path style="fill:#cdcdcd; stroke:none;" d="M168 289L168 311L169 311L168 289z"/>
<path style="fill:#9d9d9d; stroke:none;" d="M205 289L205 292L206 292L205 289z"/>
<path style="fill:#857f77; stroke:none;" d="M239 289L240 290L239 289z"/>
<path style="fill:#18120a; stroke:none;" d="M443 289L445 291L445 289L443 289z"/>
<path style="fill:#857f77; stroke:none;" d="M453 289L454 290L453 289M240 290L241 291L240 290M286 290L286 295L287 295L286 290M400.333 290.667L400.667 291.333L400.333 290.667M111 291L112 292L111 291M227 291L228 292L227 291M241 291L242 292L241 291z"/>
<path style="fill:#9d9d9d; stroke:none;" d="M352 291L353 292L352 291M201 292L202 293L201 292z"/>
<path style="fill:#857f77; stroke:none;" d="M244 292L244 295L245 295L244 292z"/>
<path style="fill:#18120a; stroke:none;" d="M357 292L358 293L357 292z"/>
<path style="fill:#857f77; stroke:none;" d="M228 293L229 294L228 293M242 293L243 294L242 293z"/>
<path style="fill:#cdcdcd; stroke:none;" d="M308 293L308 325L309 325L308 293z"/>
<path style="fill:#18120a; stroke:none;" d="M443 293L444 305L445 305L443 293z"/>
<path style="fill:#9d9d9d; stroke:none;" d="M201 294L201 325L202 325C202 315.471 204.99 302.912 201 294z"/>
<path style="fill:#857f77; stroke:none;" d="M306.333 294.667L306.667 295.333L306.333 294.667M401 294L402 295L401 294z"/>
<path style="fill:#cdcdcd; stroke:none;" d="M50 295L50 303L51 303L50 295z"/>
<path style="fill:#857f77; stroke:none;" d="M109 295L109 301L110 301L109 295z"/>
<path style="fill:#9d9d9d; stroke:none;" d="M165 295L166 296L165 295z"/>
<path style="fill:#857f77; stroke:none;" d="M243 295L244 296L243 295z"/>
<path style="fill:#9d9d9d; stroke:none;" d="M286.333 295.667L286.667 296.333L286.333 295.667z"/>
<path style="fill:#857f77; stroke:none;" d="M396 295L397 296L396 295M452 295L453 296L452 295z"/>
<path style="fill:#cdcdcd; stroke:none;" d="M461 295L461 303L462 303L461 295z"/>
<path style="fill:#857f77; stroke:none;" d="M107.333 296.667L107.667 297.333L107.333 296.667M230 296L231 297L230 296z"/>
<path style="fill:#9d9d9d; stroke:none;" d="M167 297L168 298L167 297z"/>
<path style="fill:#857f77; stroke:none;" d="M398 297L399 298L398 297M61 298L62 299L61 298z"/>
<path style="fill:#9d9d9d; stroke:none;" d="M303.333 298.667L303.667 299.333L303.333 298.667z"/>
<path style="fill:#857f77; stroke:none;" d="M59 299L60 300L59 299M232 299L233 300L232 299M287.333 299.667L287.667 300.333L287.333 299.667M61.3333 300.667L61.6667 301.333L61.3333 300.667M107 300L107 306L108 306L107 300M233 300L233 301L237 303L233 300z"/>
<path style="fill:#9d9d9d; stroke:none;" d="M287 301L288 302L287 301M343 301L343 317L344 317L345 301L343 301z"/>
<path style="fill:#857f77; stroke:none;" d="M109 302L109 305L110 305L109 302M238 302L238 303L242 304L242 303L238 302M61 303L62 319L61 319L60 316L59 316L58 324L58 325L61 329L58 330L58 335L53 334L53 339L64 338C63.9297 329.508 66.0164 309.621 61 303z"/>
<path style="fill:#9d9d9d; stroke:none;" d="M204 303L205 304L204 303z"/>
<path style="fill:#cdcdcd; stroke:none;" d="M236 303C232.32 309.441 229.132 317.39 231.514 324.961C232.295 327.445 236.17 332.73 239.383 330.828C241.489 329.581 240.335 325.881 240.169 324C239.553 317.038 241.432 311.621 243 305L236 303z"/>
<path style="fill:#857f77; stroke:none;" d="M397 303L398 304L397 303z"/>
<path style="fill:#9d9d9d; stroke:none;" d="M235 304L236 305L235 304z"/>
<path style="fill:#857f77; stroke:none;" d="M288 304L289 305L288 304M399 304L399 308L400 308L399 304M403 304L404 305L403 304M450 304L451 305L450 304z"/>
<path style="fill:#9d9d9d; stroke:none;" d="M203 305L204 306L203 305M234 305L235 306L234 305M288.333 305.667L288.667 306.333L288.333 305.667z"/>
<path style="fill:#857f77; stroke:none;" d="M233 306L234 307L233 306z"/>
<path style="fill:#5f5e5d; stroke:none;" d="M244 306L245 307L244 306z"/>
<path style="fill:#9d9d9d; stroke:none;" d="M307 306L308 309L307 306z"/>
<path style="fill:#857f77; stroke:none;" d="M395 306L395 310L396 310L395 306M397 306L397 309L398 309L397 306z"/>
<path style="fill:#18120a; stroke:none;" d="M444 306L442 327C445.176 324.224 445.254 310.076 444 306z"/>
<path style="fill:#857f77; stroke:none;" d="M451 306L452 307L451 306M107 307L107 312L108 312L107 307M109 307L109 314L110 314L109 307M111 307L112 308L111 307z"/>
<path style="fill:#5f5e5d; stroke:none;" d="M243 307L242 317L243 317L243 307z"/>
<path style="fill:#857f77; stroke:none;" d="M450 307L451 308L450 307M460 307L461 308L460 307M75 308L76 309L75 308M232 308L233 309L232 308M441 308L442 309L441 308M451.333 308.667L451.667 309.333L451.333 308.667z"/>
<path style="fill:#9d9d9d; stroke:none;" d="M232 309L233 310L232 309z"/>
<path style="fill:#857f77; stroke:none;" d="M242 309L243 310L242 309M289.333 309.667L289.667 310.333L289.333 309.667z"/>
<path style="fill:#9d9d9d; stroke:none;" d="M241 310C239.639 315.718 242.876 337.808 233 327L232 327C232.887 330.124 238.522 337.47 241.397 331.681C243.49 327.466 242.333 314.332 241 310z"/>
<path style="fill:#857f77; stroke:none;" d="M397.333 310.667L397.667 311.333L397.333 310.667M450 310L449 336L453 336L452 331L453 331L453 334L454 334L451 324L454 321C450.645 321 451.658 317.65 452 315L450 316L450 315L452 311L450 310z"/>
<path style="fill:#9d9d9d; stroke:none;" d="M168 311L168 325L169 325L168 311z"/>
<path style="fill:#857f77; stroke:none;" d="M231 311L232 312L231 311z"/>
<path style="fill:#9d9d9d; stroke:none;" d="M289 311L290 312L289 311M307.333 311.667L307.667 312.333L307.333 311.667z"/>
<path style="fill:#857f77; stroke:none;" d="M399 311L399 314L400 314L399 311M111 312L111 316L112 316L111 312z"/>
<path style="fill:#9d9d9d; stroke:none;" d="M231 312L232 313L231 312M304 312L304 315L305 315L306 312L304 312z"/>
<path style="fill:#857f77; stroke:none;" d="M115 313L116 314L115 313M107.333 314.667L107.667 315.333L107.333 314.667z"/>
<path style="fill:#9d9d9d; stroke:none;" d="M203 314L204 315L203 314z"/>
<path style="fill:#857f77; stroke:none;" d="M290.333 314.667L290.667 315.333L290.333 314.667M53 316L54 317L53 316z"/>
<path style="fill:#9d9d9d; stroke:none;" d="M205 316L206 317L205 316z"/>
<path style="fill:#857f77; stroke:none;" d="M230.333 316.667L230.667 317.333L230.333 316.667z"/>
<path style="fill:#9d9d9d; stroke:none;" d="M290 316L291 317L290 316z"/>
<path style="fill:#cdcdcd; stroke:none;" d="M460 316L460 325L461 325L460 316M51 318L51 327L52 327L51 318z"/>
<path style="fill:#9d9d9d; stroke:none;" d="M230 318L230 323L218 323L218 324L231 324L230 318M306 318L307 319L306 318z"/>
<path style="fill:#857f77; stroke:none;" d="M453 318L454 319L453 318M57 319L58 320L57 319M291.333 319.667L291.667 320.333L291.333 319.667z"/>
<path style="fill:#9d9d9d; stroke:none;" d="M291 321L291 325L292 325L291 321z"/>
<path style="fill:#5f5e5d; stroke:none;" d="M292 322L293 323L292 322z"/>
<path style="fill:#9d9d9d; stroke:none;" d="M450 322L451 323L450 322M61 323L62 324L61 323z"/>
<path style="fill:#18120a; stroke:none;" d="M215 323L215 327L216 327L217 323L215 323z"/>
<path style="fill:#857f77; stroke:none;" d="M56 324L57 325L56 324z"/>
<path style="fill:#5f5e5d; stroke:none;" d="M305 324L305 325L308 325L305 324z"/>
<path style="fill:#18120a; stroke:none;" d="M298 328L308 328L308 325C304.013 325.003 300.332 324.402 298 328z"/>
<path style="fill:#9d9d9d; stroke:none;" d="M308 325L308 328L309 328L308 325z"/>
<path style="fill:#857f77; stroke:none;" d="M427 325L428 326L427 325M454 325L454 329L455 329L454 325M459 325L460 326L459 325M150 326L149 328L151 328L150 326z"/>
<path style="fill:#5f5e5d; stroke:none;" d="M166 326L166 327L169 327L166 326z"/>
<path style="fill:#9d9d9d; stroke:none;" d="M231 326L232 327L231 326z"/>
<path style="fill:#cdcdcd; stroke:none;" d="M342 326L343 327L342 326z"/>
<path style="fill:#18120a; stroke:none;" d="M356 329L360 326L356 329z"/>
<path style="fill:#857f77; stroke:none;" d="M360 326L361 327L360 326z"/>
<path style="fill:#9d9d9d; stroke:none;" d="M361 326L361 327L367 327L361 326z"/>
<path style="fill:#857f77; stroke:none;" d="M367 326L370 328L367 326M57 327L58 328L57 327M140 327L140 329L142 329L142 327L140 327z"/>
<path style="fill:#9d9d9d; stroke:none;" d="M142 327L142 328L149 328L142 327M342 327C339.766 335.614 330.926 340.575 328.51 349C326.52 355.939 330.701 358.806 337 357C339.508 359.868 343.59 358.99 347 358C349.463 360.827 357.428 361.898 360 359L361 359C364.894 364.115 379.648 363.46 386.001 364.165C410.615 366.896 436.316 372.796 461 373L460 339L459 339C452.791 343.704 438.625 341 431 341C409.368 341 388.463 340.846 367 337.709C358.213 336.425 347.211 334.815 342 327M370 327L370 328L378 328L370 327z"/>
<path style="fill:#857f77; stroke:none;" d="M378 327L379 329L380 329L381 327L378 327M459 327L460 328L459 327M133 328L132 330L134 330L133 328z"/>
<path style="fill:#9d9d9d; stroke:none;" d="M134.667 328.333L135.333 328.667L134.667 328.333z"/>
<path style="fill:#cdcdcd; stroke:none;" d="M136.667 328.333L137.333 328.667L136.667 328.333z"/>
<path style="fill:#9d9d9d; stroke:none;" d="M138.667 328.333L139.333 328.667L138.667 328.333z"/>
<path style="fill:#857f77; stroke:none;" d="M292 328L292 337L300 335L308 328L292 328z"/>
<path style="fill:#cdcdcd; stroke:none;" d="M308 328L309 329L308 328z"/>
<path style="fill:#18120a; stroke:none;" d="M353 328L354 329L353 328z"/>
<path style="fill:#9d9d9d; stroke:none;" d="M380.667 328.333L381.333 328.667L380.667 328.333z"/>
<path style="fill:#cdcdcd; stroke:none;" d="M382 328L382 329L386 329L382 328z"/>
<path style="fill:#9d9d9d; stroke:none;" d="M386.667 328.333L387.333 328.667L386.667 328.333z"/>
<path style="fill:#857f77; stroke:none;" d="M388.333 328.667L388.667 329.333L388.333 328.667z"/>
<path style="fill:#18120a; stroke:none;" d="M442.333 328.667L442.667 329.333L442.333 328.667z"/>
<path style="fill:#857f77; stroke:none;" d="M122 331L125 329L122 331z"/>
<path style="fill:#9d9d9d; stroke:none;" d="M125 329L125 330L132 330L125 329M389 329L389 330L398 330L389 329z"/>
<path style="fill:#857f77; stroke:none;" d="M398 331L401 329L398 331M434 329L435 330L434 329z"/>
<path style="fill:#9d9d9d; stroke:none;" d="M61.3333 330.667L61.6667 331.333L61.3333 330.667z"/>
<path style="fill:#857f77; stroke:none;" d="M112 332L115 332L114 330L112 332z"/>
<path style="fill:#9d9d9d; stroke:none;" d="M114 330L114 331L122 331L114 330z"/>
<path style="fill:#5f5e5d; stroke:none;" d="M162 330L162 331L168 331L162 330z"/>
<path style="fill:#857f77; stroke:none;" d="M55 342L55 343L115 343L135 340L136 340C141.922 344.943 164.738 335.344 170 331L135 333.845L55 342z"/>
<path style="fill:#9d9d9d; stroke:none;" d="M169 330L170 331L169 330z"/>
<path style="fill:#cdcdcd; stroke:none;" d="M200 330L201 331L200 330M309 330L310 331L309 330z"/>
<path style="fill:#857f77; stroke:none;" d="M343 330L343 331C376.88 346.089 417.949 341 454 341L416 336.831L343 330z"/>
<path style="fill:#9d9d9d; stroke:none;" d="M400 330L400 331L409 331L400 330z"/>
<path style="fill:#857f77; stroke:none;" d="M409 330L412 332L409 330M440.333 330.667L440.667 331.333L440.333 330.667z"/>
<path style="fill:#18120a; stroke:none;" d="M441 330L441 336C443.283 333.979 442.745 332.312 441 330z"/>
<path style="fill:#857f77; stroke:none;" d="M53 331L54 332L53 331M102 333L105 331L102 333z"/>
<path style="fill:#9d9d9d; stroke:none;" d="M105 331L105 332L112 332L105 331z"/>
<path style="fill:#cdcdcd; stroke:none;" d="M170 331L171 332L170 331z"/>
<path style="fill:#9d9d9d; stroke:none;" d="M412 331L412 332L420 332L412 331z"/>
<path style="fill:#857f77; stroke:none;" d="M420 331L420 333L422 333L422 331L420 331z"/>
<path style="fill:#9d9d9d; stroke:none;" d="M59 332L59 335L61 334L61 333L59 332z"/>
<path style="fill:#857f77; stroke:none;" d="M93 332L92 334L94 334L93 332z"/>
<path style="fill:#9d9d9d; stroke:none;" d="M94 332L94 333L102 333L94 332M422 332L422 333L431 333L422 332z"/>
<path style="fill:#857f77; stroke:none;" d="M431 332L434 334L431 332M83 333L83 335L85 335L85 333L83 333z"/>
<path style="fill:#9d9d9d; stroke:none;" d="M85 333L85 334L92 334L85 333z"/>
<path style="fill:#cdcdcd; stroke:none;" d="M199 333L200 334L199 333z"/>
<path style="fill:#9d9d9d; stroke:none;" d="M434 333L434 334L441 334L434 333z"/>
<path style="fill:#5f5e5d; stroke:none;" d="M441 333L442 334L441 333z"/>
<path style="fill:#857f77; stroke:none;" d="M75 334L75 336L77 336L75 334z"/>
<path style="fill:#9d9d9d; stroke:none;" d="M76.6667 334.333L77.3333 334.667L76.6667 334.333z"/>
<path style="fill:#cdcdcd; stroke:none;" d="M78 334L78 335L81 335L78 334z"/>
<path style="fill:#9d9d9d; stroke:none;" d="M81.6667 334.333L82.3333 334.667L81.6667 334.333z"/>
<path style="fill:#cdcdcd; stroke:none;" d="M338 334L339 335L338 334z"/>
<path style="fill:#857f77; stroke:none;" d="M454 334L458 337L458 336L454 334M457 334L458 335L457 334z"/>
<path style="fill:#18120a; stroke:none;" d="M69 335L69 339L70 339L69 335z"/>
<path style="fill:#9d9d9d; stroke:none;" d="M71 335L71 336L75 336L71 335z"/>
<path style="fill:#cdcdcd; stroke:none;" d="M174 335L175 336L174 335z"/>
<path style="fill:#9d9d9d; stroke:none;" d="M55 336L56 337L55 336M57 336L58 337L57 336z"/>
<path style="fill:#cdcdcd; stroke:none;" d="M175 336L176 337L175 336M459 336L460 337L459 336M176 337L177 338L176 337M336 337L337 338L336 337z"/>
<path style="fill:#18120a; stroke:none;" d="M448 337C450.582 340.654 454.863 339.997 459 340C456.334 336.31 452.22 337.165 448 337z"/>
<path style="fill:#5f5e5d; stroke:none;" d="M458.333 337.667L458.667 338.333L458.333 337.667z"/>
<path style="fill:#857f77; stroke:none;" d="M459.333 337.667L459.667 338.333L459.333 337.667z"/>
<path style="fill:#cdcdcd; stroke:none;" d="M177 338L178 339L177 338M335 338L336 339L335 338z"/>
<path style="fill:#857f77; stroke:none;" d="M257 343L261 360L262 360L263 353L266 353L269 370L270 370C270.006 361.101 269.655 350.999 277 345C270.555 339.226 264.509 340.108 257 343z"/>
<path style="fill:#5f5e5d; stroke:none;" d="M454 340L454 341L459 341L454 340z"/>
<path style="fill:#cdcdcd; stroke:none;" d="M180 341L181 342L180 341M459.333 341.667L459.667 342.333L459.333 341.667z"/>
<path style="fill:#9d9d9d; stroke:none;" d="M264 342C263.938 345.687 261.482 351.111 266 352L265 349L266 349L267 352L268 352L267 342L264 342z"/>
<path style="fill:#5f5e5d; stroke:none;" d="M268 342L268 352L269 352L268 342z"/>
<path style="fill:#cdcdcd; stroke:none;" d="M52 343L52 350L53 350L52 343z"/>
<path style="fill:#5f5e5d; stroke:none;" d="M262 344L262 350L263 350L262 344z"/>
<path style="fill:#cdcdcd; stroke:none;" d="M460 347L460 352L461 352L460 347z"/>
<path style="fill:#857f77; stroke:none;" d="M200 349L201 350L200 349M234 349L235 350L234 349M263 349L264 350L263 349M290 349L291 354L292 354L290 349M295.667 349.333L296.333 349.667L295.667 349.333M301 349L302 350L301 349M308 350L308 351C310.054 351 311.001 351.899 309 353L309 354L312 353L310 349L308 350M312 349L313 350L312 349M315 349L314 351L315 349M178 350L179 351L178 350M174 358L186 358L187 350C179.967 350.083 179.154 354.186 174 358M205 350L206 351L205 350M221 350L222 351L221 350M298.667 350.333L299.333 350.667L298.667 350.333M306 350L307 351L306 350M333 350L334 351L333 350M340 350L341 351L340 350M174 351L171 356L171 357L173 358L176 354L175 356L176 356L178 353L174 351z"/>
<path style="fill:#9d9d9d; stroke:none;" d="M180 353L180 354L182 357L184 357L185 357C184.487 354.525 184.396 354.425 182 355L184 352L180 353M185 351L186 352L185 351z"/>
<path style="fill:#857f77; stroke:none;" d="M209 351L210 352L209 351M216 351L217 352L216 351M226 351L228 355L224 356L224 352L223 352L221 357L231 357L226 351M338 351L339 352L338 351M170 352L171 353L170 352M205 352L206 353L205 352M212 352L213 353L212 352M295 352L296 353L295 352M298.333 352.667L298.667 353.333L298.333 352.667M315 352L316 353L315 352M317 352L318 353L317 352M334 352L333 354L334 352M342 352L340 353L340 354L342 352M344 352L345 353L344 352M348 352L347 358L348 358L350 357L351 352L348 352M159 353L160 354L159 353M166 353L167 354L166 353M168 353L169 354L168 353M203 353L204 354L203 353M209 353L210 354L209 353M215 353L216 354L215 353M218.333 353.667L218.667 354.333L218.333 353.667M230 353L233 356L230 353M233 353L233 354L236 354L236 353L233 353z"/>
<path style="fill:#9d9d9d; stroke:none;" d="M267 353L268 354L267 353z"/>
<path style="fill:#857f77; stroke:none;" d="M300 353L300 354L304 355L304 354L300 353M306 353L307 354L306 353M329 353L330 354L329 353M338 353L339 354L338 353M353 353L353 354L356 354L353 353M361 353L362 354L361 353M368 353L369 354L368 353z"/>
<path style="fill:#cdcdcd; stroke:none;" d="M53 354L53 357L54 357L53 354z"/>
<path style="fill:#857f77; stroke:none;" d="M171 354L172 355L171 354M212 354L213 355L212 354M240 354L241 357L240 354M313 354L314 355L313 354M331 354L332 355L331 354M345.333 354.667L345.667 355.333L345.333 354.667M167 355L168 356L167 355M203 355L204 356L203 355M206 355L207 356L206 355z"/>
<path style="fill:#9d9d9d; stroke:none;" d="M228 355L229 356L228 355z"/>
<path style="fill:#857f77; stroke:none;" d="M235 355L233 356L233 357L235 355M237 355L238 356L237 355M291 355L292 356L291 355M307 355L308 356L307 355M311 355L312 356L311 355M315.333 355.667L315.667 356.333L315.333 355.667M334 355L335 356L334 355M340 355L339 357L340 355M351.333 355.667L351.667 356.333L351.333 355.667M157 356L158 357L157 356M162 356L163 357L162 356z"/>
<path style="fill:#9d9d9d; stroke:none;" d="M180 356L181 357L180 356z"/>
<path style="fill:#857f77; stroke:none;" d="M217 356L218 357L217 356M264 356L265 357L264 356M266 356L267 357L266 356z"/>
<path style="fill:#cdcdcd; stroke:none;" d="M288 356C284.416 360.81 278.147 360.323 274.938 364.434C272.796 367.178 272.881 371.714 273.09 375C273.647 383.744 270.876 401.389 275.179 408.867C280.589 418.269 298.65 409.19 300.527 400.999C302.684 391.586 293.457 390.477 290.589 383.895C287.299 376.346 289.164 364.711 291 357L288 356z"/>
<path style="fill:#857f77; stroke:none;" d="M292.667 356.333L293.333 356.667L292.667 356.333M295.667 356.333L296.333 356.667L295.667 356.333M298.667 356.333L299.333 356.667L298.667 356.333M305 356L306 357L305 356M308 356L309 357L308 356M310 356L311 357L310 356M312 356L313 357L312 356M317 356L318 357L317 356M330 356L331 357L330 356M356 356L357 357L356 356M359 356L360 357L359 356z"/>
<path style="fill:#9d9d9d; stroke:none;" d="M176 358L176 359L183 359L176 358M183 357L184 358L183 357z"/>
<path style="fill:#cdcdcd; stroke:none;" d="M263 357L263 358L267 358L263 357z"/>
<path style="fill:#857f77; stroke:none;" d="M336 357L337 358L336 357z"/>
<path style="fill:#cdcdcd; stroke:none;" d="M461 357L461 363L462 363L461 357z"/>
<path style="fill:#857f77; stroke:none;" d="M153 358L153 361L156 361L153 358M165 358L165 360L167 360L165 358M168.667 358.333L169.333 358.667L168.667 358.333z"/>
<path style="fill:#cdcdcd; stroke:none;" d="M241 358C241.185 366.95 243.694 376.049 242.83 385C242.026 393.336 236.005 402.322 242.638 409.721C246.487 414.015 258.485 415.926 260.566 408.942C261.995 404.148 260.251 398.834 260.039 394C259.678 385.744 261.642 376.005 259.276 368.015C257.121 360.739 248.644 362.871 244 358L241 358z"/>
<path style="fill:#857f77; stroke:none;" d="M344 358L345 359L344 358M346 358L347 359L346 358M356 358L357 359L356 358M107 359L108 360L107 359M157 359L157 360L160 360L160 359L157 359M170 359L171 360L170 359M350 359L351 360L350 359M358 359L359 360L358 359M360.333 359.667L360.667 360.333L360.333 359.667M362 359L363 360L362 359M374 361L375 362L374 361M128 362L129 363L128 362M376 362L377 363L376 362M378 362L379 363L378 362z"/>
<path style="fill:#cdcdcd; stroke:none;" d="M54.3333 363.667L54.6667 364.333L54.3333 363.667M268 363L268 366L269 366L268 363z"/>
<path style="fill:#857f77; stroke:none;" d="M124 365L125 366L124 365z"/>
<path style="fill:#cdcdcd; stroke:none;" d="M107 368L108 369L107 368M91 370L92 371L91 370M461 370L461 373L462 373L461 370M84 371L85 372L84 371M77 372L78 373L77 372M55 373L56 374L55 373M262 373L262 379L263 379L262 373M61 374L62 375L61 374M269.333 374.667L269.667 375.333L269.333 374.667z"/>
<path style="fill:#857f77; stroke:none;" d="M270.333 376.667L270.667 377.333L270.333 376.667z"/>
<path style="fill:#cdcdcd; stroke:none;" d="M270.333 385.667L270.667 386.333L270.333 385.667z"/>
<path style="fill:#857f77; stroke:none;" d="M271 387L271 392L272 392L271 387z"/>
<path style="fill:#cdcdcd; stroke:none;" d="M262 397L263 398L262 397z"/>
<path style="fill:#857f77; stroke:none;" d="M271 401L271 408L272 408L271 401M263 405L263 408L264 408L263 405M272 410L273 411L272 410z"/>
</svg>
