<?xml version="1.0" standalone="yes"?>
<svg xmlns="http://www.w3.org/2000/svg" width="500" height="500">
<path style="fill:#010101; stroke:none;" d="M0 0L0 500L500 500L500 0L261 0L261 92L331 87.9105L362 87C360.124 94.8779 357.87 113.452 360.604 121C362.368 125.87 367.261 129.322 369.623 134C374.237 143.139 376.563 154.826 377 165C383.356 161.513 389.565 139.568 398.258 153.019C411.289 173.184 372.949 184.837 373.027 201C373.051 205.926 379.599 211.41 381.571 216C386.569 227.632 389.526 240.684 392.349 253C395.072 264.88 398.611 277.891 395.764 290C393.515 299.563 387.095 307.404 385.436 317C383.969 325.485 380.924 334.626 380.105 343C379.223 352.017 381.707 361.51 377.672 370C373.841 378.059 363.396 386.505 355.961 391.257C350.382 394.822 346.444 390.033 341 389.364C335.889 388.736 329.691 391.204 325 393C327.356 401.164 335.57 408.952 333.602 418C331.898 425.836 322.675 433.197 315 428.771C306.639 423.949 299.682 413.117 297 404C283.423 406.095 277.819 426.041 265 429.212C257.685 431.022 243.975 423.279 237 420.861C215.074 413.261 193.023 406.008 171 398.667C164.204 396.401 150.468 394.733 145.603 389.351C141.223 384.505 143 368.348 143 362C142.999 339.306 141.981 315.597 139.83 293C135.169 244.021 135.113 194.163 132.961 145C130.851 96.8142 126.005 48.2339 126 0L0 0z"/>
<path style="fill:#c7c7c7; stroke:none;" d="M126 0L126 11L127 11L126 0z"/>
<path style="fill:#949493; stroke:none;" d="M127 0C127 94.5514 135.825 189.565 139.961 284C141.134 310.804 140.572 338.363 143.715 365C144.51 371.742 141.392 383.765 145.938 389.351C150.366 394.79 165.378 397.121 172 399.191C194.136 406.113 215.989 413.996 238 421.333C244.936 423.645 258.81 431.374 266 429.303C278.44 425.721 284.304 407.564 297 404L294 396L294 399L293 400L291 399L293 403L291 405L286 411L282 410L281 413L269 416C269 410.313 282.925 400.8 287.333 397C289.265 395.335 292.475 391.066 293 395L294 395C293.313 389.9 290.798 384.086 292.742 379.001C296.586 368.946 323.847 358.77 334 357.34C339.32 356.591 343.769 360.022 349 359L338 326L337 326C338.828 334.433 330.469 346.516 321 347.056C300.675 348.215 278.56 335.402 258 334L246 343L246 346L249 347L249 355C244.152 354.811 239.929 358.241 235 358.998C222.004 360.996 199.42 358.675 192 373C188.305 371.768 176.264 381.245 171 383C169.522 383.493 169.136 385.971 167 385C161.094 382.316 166.058 357.765 167 358L167 349L164 350C164.493 335.774 163.508 321.61 163.509 307.424C163.51 301.528 161.933 293.838 166 289L169 284L169 283L167 283L169 281L169 280L166 276L166 275L171 275L170 257L170 256L170 252L170 251C173.685 247.758 170.488 240.017 169 236L171 228L170 228L167 230L169 225L170 225L170 227L171 227L166 78L261 93L261 45L260 27L259 27L259 31L255 35L254 43L251 42L247 51L246 51L245 49L240 51L237 54L238 56L237 56L225 58L226 56L224 58L223 58L219 57L220 55L212 53L212 55L204 54L205 51L195 49L194 45L191 47L192 44L191 44L188 45L188 44L191 41L187 42L186 42L186 38C181.774 38 181.218 33.1459 180 30L179 30L179 33L177 29L174 29L176 26L173 28L173 25L171 26L172 23L169 19L166 20L166 14L161 7L159 8L160 5L156 0L127 0z"/>
<path style="fill:#767472; stroke:none;" d="M152 0L153 1L152 0M156 0L160 5L159 8L161 7L160 10L166 14L166 20L169 19C169.209 21.8585 169.174 23 172 23L171 26L173 25L173 28L176 26L174 29L177 29L179 33L179 30L180 30C180.69 33.8875 181.784 37.3138 186 38L186 42L187 42L188 40L191 41L188 44L188 45L191 44L192 44L191 47L194 45L195 49L205 51L204 54L212 55L212 53L220 55L219 57L220 57L223 58L224 58L226 56L225 58L226 58L238 56L237 54L240 51L246 51L247 51L251 42L254 43L255 35L259 31L259 27L260 27L259 29L260 29L261 0L156 0M153 1L154 2L153 1z"/>
<path style="fill:#949493; stroke:none;" d="M157 1L158 2L157 1z"/>
<path style="fill:#767472; stroke:none;" d="M155 3L156 4L155 3M155 5L157 7L155 5M158 8L158 11L159 11L158 8M155 9L156 10L155 9M160 11L161 12L160 11M162 13L162 15L164 15L162 13M160 14L161 15L160 14M157 15L158 16L157 15z"/>
<path style="fill:#949493; stroke:none;" d="M166 16L167 17L166 16z"/>
<path style="fill:#767472; stroke:none;" d="M162 18L163 19L162 18M165 20L164 22L165 20M167 20L168 21L167 20z"/>
<path style="fill:#c7c7c7; stroke:none;" d="M127 22L127 34L128 34L127 22z"/>
<path style="fill:#767472; stroke:none;" d="M167 22L168 23L167 22M165 23L166 24L165 23z"/>
<path style="fill:#949493; stroke:none;" d="M259 25L260 26L259 25z"/>
<path style="fill:#767472; stroke:none;" d="M171 27L172 28L171 27M175 31L176 32L175 31M259 31L260 32L259 31M176 33L176 36L177 36L176 33M179 34L180 35L179 34M256 37L255 39L256 37M180 38L184 42L180 38M256 40L257 41L256 40M186 44L189 43L186 44z"/>
<path style="fill:#c7c7c7; stroke:none;" d="M128 44L128 53L129 53L128 44z"/>
<path style="fill:#767472; stroke:none;" d="M252 46L253 47L252 46M200 49L200 53L201 53L202 50L200 49z"/>
<path style="fill:#949493; stroke:none;" d="M242 49L243 50L242 49M206 52L207 53L206 52M209 52L210 53L209 52z"/>
<path style="fill:#767472; stroke:none;" d="M202 53L203 54L202 53z"/>
<path style="fill:#949493; stroke:none;" d="M231 53L232 54L231 53M233 53L234 54L233 53z"/>
<path style="fill:#767472; stroke:none;" d="M241 53L240 55L241 53M243 53L244 54L243 53M215 55L216 56L215 55M213 56L214 57L213 56M217 57L218 58L217 57M209 58L210 59L209 58M221.333 58.6667L221.667 59.3333L221.333 58.6667M229 58L230 59L229 58z"/>
<path style="fill:#c7c7c7; stroke:none;" d="M129 62L129 73L130 73L129 62z"/>
<path style="fill:#767472; stroke:none;" d="M166 78L166 91L167 91L166 78z"/>
<path style="fill:#664c2a; stroke:none;" d="M167 78C167 152.377 172.165 226.7 173.985 301C174.518 322.757 177.763 346.401 175.941 367.985C175.271 375.913 165.173 375.194 167 384L213 357.324L232 350L205 349.394L181 362L173 91C188.163 93.8167 203.718 95.4218 219 97.5756C223.939 98.2718 232.646 97.9097 236.397 101.728C241.218 106.635 238 125.359 238 132C238 161.364 239 190.635 239 220L250 223C253.586 215.034 260.338 214.712 265.298 208.725C271.936 200.712 280.527 178.656 289.56 198.998C290.575 201.283 291.343 203.596 292 206L298 199C300.476 200.988 304.03 202.54 304.577 206.019C306.013 215.149 293.337 226.07 305.108 233.847C310.647 237.507 316.296 232.009 321 229.201C331.328 223.034 342.703 218.961 334.566 204.148C332.068 199.599 325.319 201.235 321 200.561C311.688 199.107 305.056 194.468 297 190L297 198L296 198C295.999 192.63 296.477 185.378 290 184C290 177.729 284.867 172.601 283 167C280.656 159.968 283.566 153.841 286 148C287.54 144.303 290.943 137.486 293 138L292 121L294 135L295 135L295 118L296 118L296 124L297 124L297 108L298 108L298 125L299 125L299 120L300 120L300 130L328 117L328 112L329 112L329 116L333 113L334 113C336.037 116.536 347.039 116.486 348 112L349 112L349 116L358 119L360 99L359 99L359 101L358 101L359 93L360 95L361 95C360.768 87.866 351.288 82.9481 346 89L342 90L341 90L339 88L339 94L338 94L338 88C310.408 88.076 282.583 94.1704 255 92.9606C226.208 91.6978 195.309 83.4899 167 78z"/>
<path style="fill:#767472; stroke:none;" d="M169.667 78.3333L170.333 78.6667L169.667 78.3333M174 79L174 80L177 80L174 79M180 80L180 81L183 81L180 80M187.667 81.3333L188.333 81.6667L187.667 81.3333M192 82L192 83L195 83L192 82z"/>
<path style="fill:#c7c7c7; stroke:none;" d="M130 83L130 97L131 97L130 83z"/>
<path style="fill:#767472; stroke:none;" d="M199 83L199 84L202 84L199 83M204.667 84.3333L205.333 84.6667L204.667 84.3333M209 85L209 86L212 86L209 85z"/>
<path style="fill:#010101; stroke:none;" d="M174 86L177 88L177 89L175 89L175 90C194.571 85.8244 218.104 97.1456 238 98L238 99L236 99L236 100L243 100C240.979 93.9046 231.427 95.0354 226 94C208.895 90.7367 191.28 88.1953 174 86z"/>
<path style="fill:#767472; stroke:none;" d="M215 86L215 87L218 87L215 86z"/>
<path style="fill:#c7c7c7; stroke:none;" d="M351 86L351 87L354 87L351 86z"/>
<path style="fill:#949493; stroke:none;" d="M354 86L355 87L354 86z"/>
<path style="fill:#c7c7c7; stroke:none;" d="M355 86L356 87L355 86z"/>
<path style="fill:#949493; stroke:none;" d="M356 86L356 87L360 87L356 86z"/>
<path style="fill:#c7c7c7; stroke:none;" d="M360 86L361 89L362 89L360 86z"/>
<path style="fill:#767472; stroke:none;" d="M221 87L221 88L225 88L221 87z"/>
<path style="fill:#c7c7c7; stroke:none;" d="M334 87L334 88L339 88L334 87z"/>
<path style="fill:#949493; stroke:none;" d="M339 87L339 88L343 88L339 87z"/>
<path style="fill:#767472; stroke:none;" d="M343 87L343 88L346 89L343 87M355 87L356 88L355 87M359 87L361 89L361 87L359 87M227 88L227 89L230 89L227 88z"/>
<path style="fill:#c7c7c7; stroke:none;" d="M318 88L318 89L323 89L318 88z"/>
<path style="fill:#949493; stroke:none;" d="M323 88L323 89L327 89L323 88z"/>
<path style="fill:#767472; stroke:none;" d="M327 88L327 89L330 89L327 88M338 88L338 94L339 94L338 88M341.333 88.6667L341.667 89.3333L341.333 88.6667M351 88L351 92L352 92L351 88M234 89L234 90L237 90L234 89z"/>
<path style="fill:#c7c7c7; stroke:none;" d="M303 89L303 90L307 90L303 89z"/>
<path style="fill:#949493; stroke:none;" d="M307 89L307 90L311 90L307 89z"/>
<path style="fill:#767472; stroke:none;" d="M311 89L311 90L314 90L311 89M239 90L239 91L242 91L239 90z"/>
<path style="fill:#c7c7c7; stroke:none;" d="M290 90L290 91L293 91L290 90z"/>
<path style="fill:#949493; stroke:none;" d="M293 90L293 91L296 91L293 90z"/>
<path style="fill:#767472; stroke:none;" d="M296 90L297 91L296 90M298 90L299 91L298 90M345 90L344 96L345 96L345 90M173 91L174 92L173 91z"/>
<path style="fill:#949493; stroke:none;" d="M174 91L173 97L174 97L174 91z"/>
<path style="fill:#767472; stroke:none;" d="M175 91L176 92L175 91M244 91L244 92L247 92L244 91z"/>
<path style="fill:#c7c7c7; stroke:none;" d="M275 91L275 92L278 92L275 91z"/>
<path style="fill:#949493; stroke:none;" d="M278 91L278 92L282 92L278 91z"/>
<path style="fill:#767472; stroke:none;" d="M282.667 91.3333L283.333 91.6667L282.667 91.3333z"/>
<path style="fill:#010101; stroke:none;" d="M174 92L175 138C183.003 134.673 191.05 130.889 200 131.376C218.407 132.376 227.686 152.284 225.707 169C225.049 174.559 223.216 179.483 219.841 183.961C217.639 186.882 213.349 189.908 213.88 194.004C214.884 201.747 226.142 209.874 232 214L232 131C232 124.302 235.229 106.017 230.972 100.742C228.52 97.7029 220.586 98.1318 217 97.5756C202.934 95.3941 188.242 92.294 174 92z"/>
<path style="fill:#c7c7c7; stroke:none;" d="M180 92L181 93L180 92z"/>
<path style="fill:#949493; stroke:none;" d="M181.667 92.3333L182.333 92.6667L181.667 92.3333z"/>
<path style="fill:#767472; stroke:none;" d="M183 92L184 93L183 92M250 92L250 93L253 93L250 92M258.667 92.3333L259.333 92.6667L258.667 92.3333z"/>
<path style="fill:#c7c7c7; stroke:none;" d="M261 92L262 93L261 92z"/>
<path style="fill:#949493; stroke:none;" d="M262 92L262 93L267 93L262 92z"/>
<path style="fill:#767472; stroke:none;" d="M267.667 92.3333L268.333 92.6667L267.667 92.3333z"/>
<path style="fill:#949493; stroke:none;" d="M188.667 93.3333L189.333 93.6667L188.667 93.3333z"/>
<path style="fill:#767472; stroke:none;" d="M190 93L191 94L190 93M359 93L358 101L359 101L359 99L360 99C358.7 104.277 355.46 117.319 360 121L359 93z"/>
<path style="fill:#c7c7c7; stroke:none;" d="M195 94L196 95L195 94z"/>
<path style="fill:#949493; stroke:none;" d="M196.667 94.3333L197.333 94.6667L196.667 94.3333z"/>
<path style="fill:#767472; stroke:none;" d="M198 94L199 95L198 94M352 94L353 95L352 94z"/>
<path style="fill:#c7c7c7; stroke:none;" d="M202 95L203 96L202 95z"/>
<path style="fill:#949493; stroke:none;" d="M203.667 95.3333L204.333 95.6667L203.667 95.3333z"/>
<path style="fill:#767472; stroke:none;" d="M205 95L206 96L205 95z"/>
<path style="fill:#949493; stroke:none;" d="M210 96L211 97L210 96z"/>
<path style="fill:#767472; stroke:none;" d="M211 96L212 97L211 96M173 97L173 104L174 104L173 97z"/>
<path style="fill:#949493; stroke:none;" d="M216.667 97.3333L217.333 97.6667L216.667 97.3333z"/>
<path style="fill:#767472; stroke:none;" d="M218 97L219 98L218 97z"/>
<path style="fill:#c7c7c7; stroke:none;" d="M223 98L224 99L223 98z"/>
<path style="fill:#949493; stroke:none;" d="M224 98L225 99L224 98z"/>
<path style="fill:#767472; stroke:none;" d="M225.667 98.3333L226.333 98.6667L225.667 98.3333M330 98L331 99L330 98M355 98L355 101L356 101L355 98z"/>
<path style="fill:#c7c7c7; stroke:none;" d="M230 99L231 100L230 99z"/>
<path style="fill:#949493; stroke:none;" d="M231 99L232 100L231 99z"/>
<path style="fill:#767472; stroke:none;" d="M232 100L233.274 134.12L235 148C232.072 152.25 233.475 160.362 233.191 165.576C232.362 180.815 230.852 198.915 233.151 214C233.893 218.868 237.585 220.508 242 221L242 220L239 220C239 189.28 238 158.683 238 128C238 120.314 241.952 101.146 232 100M348 101L347 112L348 112L348 101z"/>
<path style="fill:#949493; stroke:none;" d="M360 101L360 107L361 107L360 101z"/>
<path style="fill:#767472; stroke:none;" d="M351 102L351 107L352 107L351 102M354 103L354 108L355 108L354 103z"/>
<path style="fill:#c7c7c7; stroke:none;" d="M131 106L131 120L132 120L131 106M360 107L360 114L361 114L360 107z"/>
<path style="fill:#767472; stroke:none;" d="M167 108L167 121L168 121L167 108M297 108L297 124L296 124L296 118L295 118L295 135L294 135L292 121L293 137C299.628 132.275 300 127.638 300 120L299 120L299 125L298 125L297 108M295 109L296 110L295 109M351 109L351 115L352 115L351 109M293 111L293 120L294 120L293 111M328 112L330 117L328 112M348 112L348 116L349 116L348 112M333 113L333 116L334 116L333 113M299 114L299 119L300 119L299 114z"/>
<path style="fill:#c7c7c7; stroke:none;" d="M174 115L174 124L175 124L174 115z"/>
<path style="fill:#949493; stroke:none;" d="M334.667 115.333L335.333 115.667L334.667 115.333z"/>
<path style="fill:#c7c7c7; stroke:none;" d="M284 168C300.481 171.767 317.695 169.625 334 173.591C344.82 176.223 358.713 185.165 369.981 183.427C376.376 182.441 376.888 175.246 377 170C378.789 171.88 380.654 174.441 383.171 175.383C395.193 179.883 402.915 163.398 399.258 154.005C397.554 149.628 392.475 146.464 388.213 149.604C383.129 153.35 382.015 160.844 377 165C376.65 148.053 371.349 126.579 355 118.378C324.71 103.184 279.941 135.886 284 168z"/>
<path style="fill:#949493; stroke:none;" d="M346.667 115.333L347.333 115.667L346.667 115.333z"/>
<path style="fill:#664c2a; stroke:none;" d="M359 115L359 119L360 119L359 115z"/>
<path style="fill:#949493; stroke:none;" d="M330 116L331 117L330 116M350 116L351 117L350 116z"/>
<path style="fill:#767472; stroke:none;" d="M351 116L352 117L351 116M325 117L326 118L325 117z"/>
<path style="fill:#949493; stroke:none;" d="M326 117L327 118L326 117M353 117L354 118L353 117z"/>
<path style="fill:#767472; stroke:none;" d="M322 118L323 119L322 118z"/>
<path style="fill:#949493; stroke:none;" d="M323 118L324 119L323 118M355 118L356 119L355 118z"/>
<path style="fill:#767472; stroke:none;" d="M319 119L320 120L319 119z"/>
<path style="fill:#949493; stroke:none;" d="M317 120L318 121L317 120M358 120L359 121L358 120M232 121L233 166L234 166L235 148L232 121M315 121L316 122L315 121z"/>
<path style="fill:#767472; stroke:none;" d="M312 122L313 123L312 122z"/>
<path style="fill:#949493; stroke:none;" d="M313 122L314 123L313 122M311 123L312 124L311 123M174 124L174 132L175 132L174 124z"/>
<path style="fill:#767472; stroke:none;" d="M308 124L309 125L308 124z"/>
<path style="fill:#949493; stroke:none;" d="M307 125L308 126L307 125z"/>
<path style="fill:#664c2a; stroke:none;" d="M298 126L298 131L299 131L298 126z"/>
<path style="fill:#949493; stroke:none;" d="M305 126L306 127L305 126z"/>
<path style="fill:#c7c7c7; stroke:none;" d="M132 128L132 141L133 141L132 128z"/>
<path style="fill:#767472; stroke:none;" d="M302 128L303 129L302 128z"/>
<path style="fill:#949493; stroke:none;" d="M301 129L302 130L301 129M300 130L301 131L300 130z"/>
<path style="fill:#c7c7c7; stroke:none;" d="M175 140C177.858 139.048 180.734 137.971 182.567 141.164C188.065 150.736 186.671 163.248 195.213 171.787C203.476 180.047 219.082 179.446 222.684 167.004C223.875 162.893 224.637 158.255 225 154L224 154L224 157L223 157L222 150C224.43 128.888 183.531 124.969 175 140z"/>
<path style="fill:#767472; stroke:none;" d="M174 132L174 138L175 138L174 132M291 133L291 136L292 136L291 133M291.333 137.667L291.667 138.333L291.333 137.667z"/>
<path style="fill:#949493; stroke:none;" d="M220 185L225 158C222.393 162.46 223.092 167.716 219.606 171.956C204.717 190.061 188.621 162.636 185.158 150C184.238 146.643 183.882 136.687 178.129 138.801C174.104 140.28 174.947 145.749 175.68 149C177.691 157.92 179.727 171.624 185.638 178.812C194.222 189.249 208.969 185.503 220 185M292 138L293 139L292 138M291 139L292 140L291 139z"/>
<path style="fill:#767472; stroke:none;" d="M168 140L168 154L169 154L168 140M290 140L291 141L290 140M289 141L290 142L289 141z"/>
<path style="fill:#949493; stroke:none;" d="M287 144L288 145L287 144z"/>
<path style="fill:#767472; stroke:none;" d="M286 145L287 146L286 145z"/>
<path style="fill:#949493; stroke:none;" d="M286 146L287 147L286 146z"/>
<path style="fill:#767472; stroke:none;" d="M175 148C175.001 157.026 176 165.946 176 175C176 178.249 175.023 183.552 177.028 186.351C179.445 189.725 184.417 189.316 187.985 190.093C198.278 192.335 213.194 196.121 219 184C207.759 188.329 190.229 187.018 183.825 174.996C179.302 166.505 179.713 156.388 175 148z"/>
<path style="fill:#949493; stroke:none;" d="M285 148L286 149L285 148M222 149L223 150L222 149M284 150L285 151L284 150z"/>
<path style="fill:#c7c7c7; stroke:none;" d="M133 151L133 162L134 162L133 151z"/>
<path style="fill:#767472; stroke:none;" d="M283 152L284 153L283 152z"/>
<path style="fill:#949493; stroke:none;" d="M223 153L223 157L224 157L223 153M283 153L284 154L283 153M234 154L235 155L234 154z"/>
<path style="fill:#767472; stroke:none;" d="M282 157L282 160L283 160L282 157z"/>
<path style="fill:#c7c7c7; stroke:none;" d="M225 162L225 171L226 171L225 162z"/>
<path style="fill:#767472; stroke:none;" d="M168 164L169 165L168 164z"/>
<path style="fill:#949493; stroke:none;" d="M283.333 164.667L283.667 165.333L283.333 164.667z"/>
<path style="fill:#c7c7c7; stroke:none;" d="M232 165L232 214L222 205L233 216C233 201.689 237.508 178.127 232 165z"/>
<path style="fill:#767472; stroke:none;" d="M283.333 166.667L283.667 167.333L283.333 166.667z"/>
<path style="fill:#949493; stroke:none;" d="M284 168C294.147 204.803 330.521 195 359 195L359 196L336 204L336 223C340.177 220.709 342.651 219.019 342 214C352.447 208.018 366.02 194.902 373 185L374 185L380 186L379 189C386.277 185.537 391.121 179.96 395 173C386.145 175.416 384.4 175.564 377 170L378 182L377 182L376 179C368.901 186.782 358.355 181.472 350 178.203C329.271 170.092 305.76 171.199 284 168M395 171L396 172L395 171z"/>
<path style="fill:#c7c7c7; stroke:none;" d="M134 172L134 180L135 180L134 172z"/>
<path style="fill:#767472; stroke:none;" d="M285 172L286 173L285 172M169 173L169 187L170 187L169 173z"/>
<path style="fill:#c7c7c7; stroke:none;" d="M394 174L395 175L394 174M224 175L225 176L224 175z"/>
<path style="fill:#767472; stroke:none;" d="M377 175L377 182L378 182L377 175z"/>
<path style="fill:#c7c7c7; stroke:none;" d="M393 175L394 176L393 175z"/>
<path style="fill:#767472; stroke:none;" d="M287 176L288 177L287 176z"/>
<path style="fill:#949493; stroke:none;" d="M376.333 176.667L376.667 177.333L376.333 176.667z"/>
<path style="fill:#c7c7c7; stroke:none;" d="M392 177L393 178L392 177M223 178L224 179L223 178z"/>
<path style="fill:#767472; stroke:none;" d="M288 178L289 179L288 178z"/>
<path style="fill:#c7c7c7; stroke:none;" d="M391 178L392 179L391 178M222 180L223 181L222 180z"/>
<path style="fill:#767472; stroke:none;" d="M289 180L290 181L289 180M290 181L290 184L291 184L290 181M220 182L219 184L220 182z"/>
<path style="fill:#c7c7c7; stroke:none;" d="M388 182L389 183L388 182M220 183L221 184L220 183z"/>
<path style="fill:#767472; stroke:none;" d="M292 184L293 185L292 184M293 185L294 186L293 185z"/>
<path style="fill:#c7c7c7; stroke:none;" d="M373 185L342 214C341.846 223.358 325.982 226.561 319 230.579C316.314 232.125 313.112 234.873 310 235.354C307.167 235.792 304.372 233.743 302.653 231.674C294.605 221.989 308.89 211.595 303.667 203.434C300.393 198.318 294.573 204.511 292 207C291.345 204.237 290.475 201.631 289.395 199C281.075 178.724 271.646 200.657 266.015 208.722C263.257 212.674 256.553 212.177 254.836 217.185C253.385 221.416 256.607 225.225 260 227L259 217C264.362 216.87 269.999 211.74 274.996 214.184C283.274 218.232 283.335 228.194 287.995 234.892C292.037 240.703 301.055 242.003 306.536 246.144C309.735 248.561 311.78 252.814 316.004 253.639C327.842 255.951 342.286 235.273 353.985 240.273C362.874 244.073 365.289 258.799 359.57 265.907C355.164 271.382 349.511 271.996 343 272C339.797 281.55 333.274 290.879 332.174 301C330.198 319.17 342.497 342.233 349 359C344.156 359.32 339.877 356.842 335 357.108C324.948 357.657 303.557 366.571 296.109 373.34C290.627 378.322 291.764 385.514 293.375 392C296.715 405.448 301.151 419.584 313 428L312 426L313 426L329 425L327 428C344.968 419.016 324.309 401.766 326 395L320 390L329 386L359 379L372 378C382.609 369.674 381.343 350.22 380 338C387.605 332.693 383.513 317.85 385.91 310.054C387.628 304.467 393.096 300.292 394.964 294C399.624 278.303 394.844 260.361 390.576 245C387.608 234.32 385.561 223.033 380.676 213C378.12 207.749 372.849 204.19 374 198L370 200L376 196L380 186L378 188L377 188L373 185z"/>
<path style="fill:#767472; stroke:none;" d="M294 186L295 187L294 186z"/>
<path style="fill:#c7c7c7; stroke:none;" d="M383 186L384 187L383 186M176 187L176 193L177 193L178 187L176 187M217 187L218 188L217 187z"/>
<path style="fill:#767472; stroke:none;" d="M295 187L296 188L295 187M169 188L169 191L170 191L169 188z"/>
<path style="fill:#010101; stroke:none;" d="M177 188L177 216C182.209 212.388 197.759 200.994 191.933 192.589C189.755 189.447 180.602 188.953 177 188z"/>
<path style="fill:#c7c7c7; stroke:none;" d="M179 188L180 189L179 188z"/>
<path style="fill:#767472; stroke:none;" d="M296 188L296 198L297 198L296 188z"/>
<path style="fill:#c7c7c7; stroke:none;" d="M380 188L381 189L380 188M135 189L135 202L136 202L135 189M181 189L182 190L181 189z"/>
<path style="fill:#949493; stroke:none;" d="M182 189L183 190L182 189z"/>
<path style="fill:#664c2a; stroke:none;" d="M185.667 189.333L186.333 189.667L185.667 189.333z"/>
<path style="fill:#949493; stroke:none;" d="M214 189L215 190L214 189z"/>
<path style="fill:#767472; stroke:none;" d="M280 189L281 190L280 189z"/>
<path style="fill:#c7c7c7; stroke:none;" d="M187 190L187 191L190 191L187 190z"/>
<path style="fill:#949493; stroke:none;" d="M190 190L191 191L190 190M278 190L279 191L278 190M283 190L284 191L283 190z"/>
<path style="fill:#767472; stroke:none;" d="M298 190L299 191L298 190z"/>
<path style="fill:#949493; stroke:none;" d="M192 191L193 192L192 191z"/>
<path style="fill:#c7c7c7; stroke:none;" d="M213 191L214 192L213 191z"/>
<path style="fill:#767472; stroke:none;" d="M276 191L277 192L276 191M285 191L286 192L285 191M290.333 191.667L290.667 192.333L290.333 191.667M299.667 191.333L300.333 191.667L299.667 191.333z"/>
<path style="fill:#949493; stroke:none;" d="M193 193L190 205C194.428 202.083 202.136 194.306 207.96 195.875C212.218 197.022 214.444 202.454 216.244 206C221.554 216.463 223.139 226.616 225.261 238C225.986 241.891 228.345 247.524 226.535 251.381C223.67 257.489 207.229 261.89 201 263L202.725 239L199.718 224.004L214 207L213 206L184 222L184 211C175.552 217.039 178 226.644 178 236C185.109 234.894 190.129 226.871 195 222L194 256L194 274L196 288L201 294L231 293L231 294L208 295C208.97 299.243 210.647 303.601 209.58 308C206.406 321.089 188.753 340.415 204 350C211.442 347.415 241.254 356.166 235.008 339.005C234.25 336.919 233.026 334.961 232 333L220 332L220 333L222 334L213 336C218.409 330.331 222.16 319.349 230 317L231 315L230 313L232 313L231 311L232 310L233 310L231 328L232 328C234.209 317.238 235.033 305.954 233 295C241.621 301.843 251.023 306.805 260 313.039C264.218 315.969 268.644 320.813 274 321.433C287.38 322.982 300.926 290.668 298 280L297 280C297 282.965 287.752 289.651 285.333 293C281.119 298.836 277.036 310.333 270 313.167C265.969 314.79 261.089 310.059 258 308C248.301 301.534 238.213 292.415 228 287.167C221.9 284.032 199.979 283.19 201 274L197 275C198.617 272.575 203.054 268.786 202 273L212 268L212 267L207 268L207 267C216.14 263.251 222.283 261.995 232 264L232 265L228 265L228 266L234 266L233.675 251L227 225L228 225C232.091 231.296 250.361 233.355 253 225C255.749 226.976 258.406 228.905 261 226C255.947 224.781 254.571 220.906 255 216L251 223L245 221L248 225C244.806 224.735 241.861 224.372 241 221C230.937 217.579 216.054 202.284 213 192L193 193M275 192L276 193L275 192z"/>
<path style="fill:#767472; stroke:none;" d="M301 192L302 193L301 192z"/>
<path style="fill:#949493; stroke:none;" d="M176 193L176 200L177 200L176 193M274 193L275 194L274 193z"/>
<path style="fill:#767472; stroke:none;" d="M302 193L302 194C309.821 197.651 332.792 199.388 335 207L336 207L359 196L359 195L302 193z"/>
<path style="fill:#c7c7c7; stroke:none;" d="M213 194L214 195L213 194z"/>
<path style="fill:#949493; stroke:none;" d="M273 194L274 195L273 194M287 194L288 195L287 194z"/>
<path style="fill:#767472; stroke:none;" d="M290 194L291 195L290 194z"/>
<path style="fill:#949493; stroke:none;" d="M375 194L376 195L375 194z"/>
<path style="fill:#c7c7c7; stroke:none;" d="M183 210L184 222L213 206L214 207L199.704 223.015L202.498 239L201 263C207.006 262.385 224.007 257.78 226.651 251.895C228.472 247.841 226.263 242.077 225.449 238C223.114 226.3 221.727 215.801 216.244 205C214.431 201.428 212.343 196.41 207.96 195.488C198.587 193.517 190.341 206.487 183 210z"/>
<path style="fill:#767472; stroke:none;" d="M272 195L273 196L272 195z"/>
<path style="fill:#949493; stroke:none;" d="M374 195L370 200L374 195z"/>
<path style="fill:#c7c7c7; stroke:none;" d="M192.333 196.667L192.667 197.333L192.333 196.667M214 196L215 197L214 196z"/>
<path style="fill:#767472; stroke:none;" d="M288 196L289 197L288 196z"/>
<path style="fill:#c7c7c7; stroke:none;" d="M215 198L216 199L215 198z"/>
<path style="fill:#949493; stroke:none;" d="M270 198L271 199L270 198z"/>
<path style="fill:#767472; stroke:none;" d="M289 198L290 199L289 198z"/>
<path style="fill:#c7c7c7; stroke:none;" d="M216 199L217 200L216 199z"/>
<path style="fill:#949493; stroke:none;" d="M289 199L290 200L289 199z"/>
<path style="fill:#767472; stroke:none;" d="M298.333 199.667L298.667 200.333L298.333 199.667M176 200L176 206L177 206L176 200z"/>
<path style="fill:#c7c7c7; stroke:none;" d="M191.333 200.667L191.667 201.333L191.333 200.667M217 200L218 201L217 200z"/>
<path style="fill:#949493; stroke:none;" d="M269 200L270 201L269 200z"/>
<path style="fill:#767472; stroke:none;" d="M268 201L269 202L268 201M290 201L291 202L290 201M297 201L298 202L297 201z"/>
<path style="fill:#949493; stroke:none;" d="M302 201L303 202L302 201M268 202L269 203L268 202M296 202L297 203L296 202z"/>
<path style="fill:#767472; stroke:none;" d="M170 203L171 204L170 203z"/>
<path style="fill:#c7c7c7; stroke:none;" d="M190 203L191 204L190 203z"/>
<path style="fill:#767472; stroke:none;" d="M291 203L292 204L291 203z"/>
<path style="fill:#949493; stroke:none;" d="M295 203L296 204L295 203z"/>
<path style="fill:#767472; stroke:none;" d="M304 203L305 204L304 203z"/>
<path style="fill:#c7c7c7; stroke:none;" d="M220 204L221 205L220 204z"/>
<path style="fill:#949493; stroke:none;" d="M267 204L268 205L267 204M291 204L292 205L291 204M294 204L295 205L294 204M304 204L305 205L304 204z"/>
<path style="fill:#767472; stroke:none;" d="M169 205L170 222L171 222L169 205M293 205L294 206L293 205z"/>
<path style="fill:#949493; stroke:none;" d="M292 206L293 207L292 206M233 207L234 208L233 207z"/>
<path style="fill:#767472; stroke:none;" d="M266 207L267 208L266 207z"/>
<path style="fill:#949493; stroke:none;" d="M266 208L265 211L266 208M304 208L305 209L304 208z"/>
<path style="fill:#767472; stroke:none;" d="M265 209L266 210L265 209M304 209L305 210L304 209M200 215L206 210L200 215M264 210L265 211L264 210z"/>
<path style="fill:#c7c7c7; stroke:none;" d="M182 211L183 212L182 211z"/>
<path style="fill:#767472; stroke:none;" d="M261 211L262 212L261 211z"/>
<path style="fill:#949493; stroke:none;" d="M262 211L263 212L262 211M303 211L304 212L303 211z"/>
<path style="fill:#c7c7c7; stroke:none;" d="M136 212L136 225L137 225L136 212M181 212L182 213L181 212z"/>
<path style="fill:#767472; stroke:none;" d="M259 212L260 213L259 212z"/>
<path style="fill:#c7c7c7; stroke:none;" d="M180 213L181 214L180 213z"/>
<path style="fill:#949493; stroke:none;" d="M257 213L258 214L257 213M259 220C269.657 219.324 271.164 228.091 277.465 234.815C281.026 238.615 285.852 239.608 289.791 242.699C293.642 245.721 295.908 250.091 300 253L299 251L300 251C312.384 263.358 329.104 252.032 342 246L341 276L342 276L343 272C349.639 272 356.241 272.148 360.5 265.972C365.424 258.832 363.069 242.551 354 239.5C342.058 235.482 328.505 254.578 317 253.806C312.358 253.494 310.112 247.794 306.611 245.417C301.204 241.745 292.538 240.384 288.472 234.972C283.762 228.703 284.135 219.2 277 214.5C272.455 211.506 260.066 215.026 259 220z"/>
<path style="fill:#767472; stroke:none;" d="M302 213L303 214L302 213M336 213L336 218L337 218L336 213z"/>
<path style="fill:#c7c7c7; stroke:none;" d="M179 214L180 215L179 214z"/>
<path style="fill:#767472; stroke:none;" d="M255 214L256 215L255 214z"/>
<path style="fill:#949493; stroke:none;" d="M256 214L257 215L256 214z"/>
<path style="fill:#c7c7c7; stroke:none;" d="M178 215L179 216L178 215z"/>
<path style="fill:#767472; stroke:none;" d="M254 215L255 216L254 215z"/>
<path style="fill:#949493; stroke:none;" d="M301 215L302 216L301 215z"/>
<path style="fill:#c7c7c7; stroke:none;" d="M177 216L178 217L177 216z"/>
<path style="fill:#767472; stroke:none;" d="M253 216L254 217L253 216z"/>
<path style="fill:#c7c7c7; stroke:none;" d="M341 216L342 217L341 216z"/>
<path style="fill:#767472; stroke:none;" d="M252 217L253 218L252 217z"/>
<path style="fill:#949493; stroke:none;" d="M300.333 217.667L300.667 218.333L300.333 217.667z"/>
<path style="fill:#767472; stroke:none;" d="M177 218L177 234L178 234L177 218M251 218L252 219L251 218M260 219L261 226L262 226L266 223L266 228L267 228L269 221L260 219M300 219L301 220L300 219M195 221L196 222L195 221z"/>
<path style="fill:#c7c7c7; stroke:none;" d="M240 222L240 223L248 225C245.503 222.008 243.836 221.149 240 222z"/>
<path style="fill:#767472; stroke:none;" d="M246 221L247 222L246 221M252 221L253 222L252 221z"/>
<path style="fill:#949493; stroke:none;" d="M260.333 221.667L260.667 222.333L260.333 221.667z"/>
<path style="fill:#767472; stroke:none;" d="M169 222L170 223L169 222M194 222L184 233L191 227L193 236L194 236L194 222M250 222L251 223L250 222z"/>
<path style="fill:#664c2a; stroke:none;" d="M267 222L267 228L266 228L266 223L239 232L239.603 265.61L249 273.015L272 291C275.292 281.349 290.209 266.03 297.933 282.043C299.76 285.831 297.312 290.542 295.766 294C292.266 301.827 286.628 323.513 275 322.137C270.104 321.558 265.792 317.042 262 314.289C254.848 309.094 246.679 304.37 239 300L239 325L232 324C232.588 327.403 233.649 328.272 237 329L232 333L236 343C242.267 340.071 249.923 332.222 257 332.548C272.651 333.269 289.686 340.023 305 343.424C310.645 344.678 318.296 348.325 323.999 346.142C328.766 344.317 337.06 337.242 337.879 332C339.26 323.163 330.502 313.629 331.094 304C331.744 293.421 338.658 284.206 341.101 274C343.158 265.404 341 255.804 341 247C331.902 250.078 321.674 257.848 312 257.917C301.542 257.991 297.554 249.609 290.486 243.814C285.731 239.915 280.453 237.888 276.326 232.996C273.181 229.269 271.232 224.568 267 222z"/>
<path style="fill:#767472; stroke:none;" d="M226 223L227 224L226 223M269 223L270 224L269 223z"/>
<path style="fill:#949493; stroke:none;" d="M330 225L334 224L330 225z"/>
<path style="fill:#767472; stroke:none;" d="M168 224L169 225L168 224M329 224L330 225L329 224M169 225L167 230C170.202 229.627 170.72 227.674 169 225M227 225L228 231L230 232L233 231C233 240.163 229.463 263.91 239 267L239 232L260 229L260 228L253 225C248.249 234.053 233.574 229.788 227 225M327 225L328 226L327 225z"/>
<path style="fill:#949493; stroke:none;" d="M328 225L329 226L328 225z"/>
<path style="fill:#767472; stroke:none;" d="M271 226L272 227L271 226M325 226L326 227L325 226z"/>
<path style="fill:#949493; stroke:none;" d="M326 226L327 227L326 226z"/>
<path style="fill:#c7c7c7; stroke:none;" d="M190 227L186 232L190 227z"/>
<path style="fill:#767472; stroke:none;" d="M300 227L301 228L300 227M323 227L324 228L323 227z"/>
<path style="fill:#949493; stroke:none;" d="M324 227L325 228L324 227z"/>
<path style="fill:#010101; stroke:none;" d="M190 228C182.293 235.1 175.595 245.643 179.897 256.985C181.236 260.514 187.694 263.784 187.079 267.735C186.536 271.222 181.086 269.427 179 269L182 361L203 349C183.058 339.047 210.919 310.73 208 295C198.296 294.349 194.432 285.871 194.039 277C193.424 263.089 197.338 240.231 190 228z"/>
<path style="fill:#949493; stroke:none;" d="M191.333 228.667L191.667 229.333L191.333 228.667M300 228L301 229L300 228M322 228L323 229L322 228z"/>
<path style="fill:#767472; stroke:none;" d="M266 229L267 230L266 229M273 229L274 230L273 229M320 229L321 230L320 229z"/>
<path style="fill:#c7c7c7; stroke:none;" d="M191 230L192 231L191 230z"/>
<path style="fill:#664c2a; stroke:none;" d="M229 230L230 231L229 230z"/>
<path style="fill:#767472; stroke:none;" d="M301 230L302 231L301 230M318 230L319 231L318 230z"/>
<path style="fill:#949493; stroke:none;" d="M319 230L320 231L319 230z"/>
<path style="fill:#767472; stroke:none;" d="M166 231L167 232L166 231z"/>
<path style="fill:#c7c7c7; stroke:none;" d="M229 231L230 232L229 231z"/>
<path style="fill:#664c2a; stroke:none;" d="M231.667 231.333L232.333 231.667L231.667 231.333z"/>
<path style="fill:#949493; stroke:none;" d="M317 231L318 232L317 231z"/>
<path style="fill:#010101; stroke:none;" d="M229 232L232 244C233.806 239.697 233.98 233.653 229 232z"/>
<path style="fill:#c7c7c7; stroke:none;" d="M232 232L233 233L232 232z"/>
<path style="fill:#767472; stroke:none;" d="M275 232L276 233L275 232z"/>
<path style="fill:#949493; stroke:none;" d="M302 232L303 233L302 232z"/>
<path style="fill:#767472; stroke:none;" d="M315 232L316 233L315 232M170 233L171 234L170 233M182 233L181 235L182 233z"/>
<path style="fill:#949493; stroke:none;" d="M192 233L193 234L192 233z"/>
<path style="fill:#c7c7c7; stroke:none;" d="M229.333 233.667L229.667 234.333L229.333 233.667z"/>
<path style="fill:#767472; stroke:none;" d="M276 233L277 234L276 233M304 233L305 234L304 233M313 233L314 234L313 233z"/>
<path style="fill:#c7c7c7; stroke:none;" d="M137 234L137 247L138 247L137 234z"/>
<path style="fill:#767472; stroke:none;" d="M161 234L162 235L161 234M167 234L168 235L167 234M171 234L169 236L171 245L172 245L171 234z"/>
<path style="fill:#c7c7c7; stroke:none;" d="M192 234L192 237L193 237L192 234z"/>
<path style="fill:#949493; stroke:none;" d="M305 234L306 235L305 234z"/>
<path style="fill:#767472; stroke:none;" d="M312 234L313 235L312 234M165 235L166 236L165 235M180 235L178 251L179 251L180 235M307 235L308 236L307 235z"/>
<path style="fill:#949493; stroke:none;" d="M311 235L312 236L311 235z"/>
<path style="fill:#767472; stroke:none;" d="M167 236L168 237L167 236z"/>
<path style="fill:#c7c7c7; stroke:none;" d="M180 236L181 237L180 236M230 236L230 239L231 239L230 236z"/>
<path style="fill:#767472; stroke:none;" d="M308.667 236.333L309.333 236.667L308.667 236.333M164 237L165 238L164 237z"/>
<path style="fill:#949493; stroke:none;" d="M179 237L180 238L179 237z"/>
<path style="fill:#767472; stroke:none;" d="M280 237L281 238L280 237z"/>
<path style="fill:#c7c7c7; stroke:none;" d="M179 238L180 239L179 238z"/>
<path style="fill:#767472; stroke:none;" d="M281 238L282 239L281 238z"/>
<path style="fill:#949493; stroke:none;" d="M179.333 239.667L179.667 240.333L179.333 239.667z"/>
<path style="fill:#767472; stroke:none;" d="M283 239L284 240L283 239z"/>
<path style="fill:#c7c7c7; stroke:none;" d="M231 240L231 243L232 243L231 240z"/>
<path style="fill:#767472; stroke:none;" d="M284.667 240.333L285.333 240.667L284.667 240.333M169 241L170 242L169 241M286 241L286 242L291 243L291 242L286 241z"/>
<path style="fill:#c7c7c7; stroke:none;" d="M193 243L193 257L194 257L193 243z"/>
<path style="fill:#767472; stroke:none;" d="M291.333 243.667L291.667 244.333L291.333 243.667z"/>
<path style="fill:#c7c7c7; stroke:none;" d="M232 244L232 247L233 247L232 244z"/>
<path style="fill:#767472; stroke:none;" d="M169 245L168 247L169 245M292 245L293 246L292 245M171 246L172 247L171 246M341 246L341 252L342 252L341 246M344 246L348 249L344 246M293 247L294 248L293 247M338.667 247.333L339.333 247.667L338.667 247.333M294 248L295 249L294 248M336 248L337 249L336 248M165 249L166 250L165 249z"/>
<path style="fill:#949493; stroke:none;" d="M179 249L180 250L179 249z"/>
<path style="fill:#767472; stroke:none;" d="M295 249L296 250L295 249M333.667 249.333L334.333 249.667L333.667 249.333M169 250L170 251L169 250z"/>
<path style="fill:#c7c7c7; stroke:none;" d="M179 250L180 251L179 250z"/>
<path style="fill:#767472; stroke:none;" d="M296 250L297 251L296 250M298 250L299 251L298 250M331 250L332 251L331 250M170.667 251.333L171.333 251.667L170.667 251.333M297 251L298 252L297 251M299 251L299 254L317 258L317 257L299 251M329 251L330 252L329 251M298 252L299 253L298 252M326.667 252.333L327.333 252.667L326.667 252.333M178.333 253.667L178.667 254.333L178.333 253.667M170 254L169 256L170 254M323 254L324 255L323 254M341 254L341 262L342 262L341 254M171 255L172 258L171 255M320.667 255.333L321.333 255.667L320.667 255.333z"/>
<path style="fill:#c7c7c7; stroke:none;" d="M138 256L138 269L139 269L138 256z"/>
<path style="fill:#767472; stroke:none;" d="M178 256L179 260L180 260L178 256z"/>
<path style="fill:#c7c7c7; stroke:none;" d="M179 256L180 257L179 256z"/>
<path style="fill:#767472; stroke:none;" d="M318 256L319 257L318 256z"/>
<path style="fill:#949493; stroke:none;" d="M179 257L180 258L179 257z"/>
<path style="fill:#767472; stroke:none;" d="M170 259L171 260L170 259z"/>
<path style="fill:#949493; stroke:none;" d="M180 259C178.799 264.452 182.035 267.306 187 269C187.166 263.828 183.902 261.858 180 259z"/>
<path style="fill:#767472; stroke:none;" d="M171 260L171 275L166 275L166 276L169 280L169 281C167.286 281.951 166.647 283.081 169 283L169 284L166 284L166 289C161.706 292.519 163.062 301.385 163.231 306.486C163.713 320.962 164.183 335.493 164 350L167 349L167 358C164.096 358.484 162.938 383.049 167.218 384.444C175.939 387.289 184.39 374.036 192 373L194 369L167 384C166.085 375.774 175.271 376.315 175.941 368.96C178.259 343.527 174.158 315.537 173.039 290C172.679 281.761 176.094 266.724 171 260z"/>
<path style="fill:#c7c7c7; stroke:none;" d="M181 260L182 261L181 260M184 262L185 263L184 262z"/>
<path style="fill:#767472; stroke:none;" d="M207 267L207 268L232 265C224.537 259.683 214.294 262.854 207 267M179 264L178 269C182.324 269.111 186.348 270.96 188 266L187 266L187 269L179 264z"/>
<path style="fill:#949493; stroke:none;" d="M218 264L218 265L227 265L218 264z"/>
<path style="fill:#767472; stroke:none;" d="M166 267L169 266L166 267z"/>
<path style="fill:#949493; stroke:none;" d="M213 266L213 267L217 266L213 266z"/>
<path style="fill:#c7c7c7; stroke:none;" d="M202 273C201.382 269.394 198.021 273.246 197 275L201 274C201.34 281.469 210.088 282.108 216 283.63C230.392 287.335 241.592 298.195 254 306.053C258.257 308.75 264.486 314.817 269.996 313.164C282.027 309.554 286.02 288.216 298 282C287.622 268.867 276.426 279.591 272 291C253.248 282.077 241.455 259.143 217 265.613C211.741 267.004 206.664 270.275 202 273z"/>
<path style="fill:#949493; stroke:none;" d="M235 266L235 267L238 267L235 266M239 267L240 268L239 267z"/>
<path style="fill:#767472; stroke:none;" d="M240 267L241 268L240 267z"/>
<path style="fill:#c7c7c7; stroke:none;" d="M179 268L180 269L179 268z"/>
<path style="fill:#949493; stroke:none;" d="M180 268L181 269L180 268M241 268L242 269L241 268z"/>
<path style="fill:#767472; stroke:none;" d="M242 268L243 269L242 268z"/>
<path style="fill:#c7c7c7; stroke:none;" d="M181 269L182 270L181 269z"/>
<path style="fill:#949493; stroke:none;" d="M182 269L183 270L182 269z"/>
<path style="fill:#c7c7c7; stroke:none;" d="M187 269L188 270L187 269z"/>
<path style="fill:#767472; stroke:none;" d="M244 269L245 270L244 269z"/>
<path style="fill:#c7c7c7; stroke:none;" d="M184.667 270.333L185.333 270.667L184.667 270.333M203 270L204 271L203 270z"/>
<path style="fill:#949493; stroke:none;" d="M245 270L246 271L245 270M247 271L248 272L247 271M248 272L249 273L248 272z"/>
<path style="fill:#767472; stroke:none;" d="M341.333 272.667L341.667 273.333L341.333 272.667z"/>
<path style="fill:#949493; stroke:none;" d="M249 273L250 274L249 273z"/>
<path style="fill:#c7c7c7; stroke:none;" d="M194 274L194 282L195 282L194 274z"/>
<path style="fill:#767472; stroke:none;" d="M252 275L253 276L252 275M284 275L284 276L289 276L284 275M165 276L166 277L165 276M253 276L254 277L253 276M281 276L282 277L281 276z"/>
<path style="fill:#949493; stroke:none;" d="M290.667 276.333L291.333 276.667L290.667 276.333z"/>
<path style="fill:#767472; stroke:none;" d="M340 276L341 277L340 276z"/>
<path style="fill:#949493; stroke:none;" d="M169 277L170 278L169 277z"/>
<path style="fill:#767472; stroke:none;" d="M254 277L255 278L254 277M279 277L280 278L279 277z"/>
<path style="fill:#949493; stroke:none;" d="M293 277L294 278L293 277M340.333 277.667L340.667 278.333L340.333 277.667z"/>
<path style="fill:#767472; stroke:none;" d="M255 278L256 279L255 278M278 278L279 279L278 278M295 278L296 279L295 278z"/>
<path style="fill:#c7c7c7; stroke:none;" d="M139 279L139 291L140 291L139 279z"/>
<path style="fill:#949493; stroke:none;" d="M171 279L172 280L171 279z"/>
<path style="fill:#767472; stroke:none;" d="M256 279L257 280L256 279M277 279L278 280L277 279M296 279L297 280L296 279M339 279L340 280L339 279M166 280L167 281L166 280M257 280L258 281L257 280z"/>
<path style="fill:#949493; stroke:none;" d="M339 280L340 281L339 280z"/>
<path style="fill:#767472; stroke:none;" d="M164 281L165 282L164 281M258 281L259 282L258 281z"/>
<path style="fill:#c7c7c7; stroke:none;" d="M179 282L179 288L180 288L179 282z"/>
<path style="fill:#949493; stroke:none;" d="M259 282L260 283L259 282M275 282L276 283L275 282M338.333 282.667L338.667 283.333L338.333 282.667z"/>
<path style="fill:#767472; stroke:none;" d="M162 283L164 285L164 283L162 283M165 283L166 284L165 283z"/>
<path style="fill:#949493; stroke:none;" d="M274 284L275 285L274 284z"/>
<path style="fill:#767472; stroke:none;" d="M337 284L338 285L337 284z"/>
<path style="fill:#c7c7c7; stroke:none;" d="M195.333 285.667L195.667 286.333L195.333 285.667z"/>
<path style="fill:#949493; stroke:none;" d="M337 285L338 286L337 285z"/>
<path style="fill:#767472; stroke:none;" d="M264 286L265 287L264 286M273 286L274 287L273 286M298 286L299 287L298 286z"/>
<path style="fill:#949493; stroke:none;" d="M265 287L266 288L265 287M273 287L274 288L273 287M336 287L337 288L336 287M179 288L179 295L180 295L179 288z"/>
<path style="fill:#767472; stroke:none;" d="M267 288L268 289L267 288z"/>
<path style="fill:#c7c7c7; stroke:none;" d="M197 289L198 290L197 289z"/>
<path style="fill:#949493; stroke:none;" d="M268 289L269 290L268 289M272 289L273 290L272 289z"/>
<path style="fill:#767472; stroke:none;" d="M297.333 289.667L297.667 290.333L297.333 289.667M335 289L336 290L335 289M270 290L271 291L270 290z"/>
<path style="fill:#949493; stroke:none;" d="M335 290L336 291L335 290z"/>
<path style="fill:#c7c7c7; stroke:none;" d="M198 291L200 293L198 291z"/>
<path style="fill:#767472; stroke:none;" d="M199 291L200 292L199 291M202 293L202 294L217.961 297.157L231 294C222.42 288.827 211.398 292.994 202 293M334 291L335 292L334 291M200.667 292.333L201.333 292.667L200.667 292.333M296 292L297 293L296 292z"/>
<path style="fill:#949493; stroke:none;" d="M334 292L335 293L334 292M165 293L166 294L165 293z"/>
<path style="fill:#767472; stroke:none;" d="M333 293L334 294L333 293z"/>
<path style="fill:#c7c7c7; stroke:none;" d="M202 294L203 295L202 294z"/>
<path style="fill:#949493; stroke:none;" d="M203.667 294.333L204.333 294.667L203.667 294.333z"/>
<path style="fill:#767472; stroke:none;" d="M295 294L296 295L295 294z"/>
<path style="fill:#949493; stroke:none;" d="M333 294L334 295L333 294z"/>
<path style="fill:#767472; stroke:none;" d="M179 295L179 301L180 301L179 295M233 295L233 324L239 325C239 315.335 242.411 300.622 233 295M294 296L295 297L294 296M332 296L333 297L332 296z"/>
<path style="fill:#949493; stroke:none;" d="M165 297L166 298L165 297z"/>
<path style="fill:#c7c7c7; stroke:none;" d="M208 297L209 298L208 297z"/>
<path style="fill:#949493; stroke:none;" d="M332.333 297.667L332.667 298.333L332.333 297.667z"/>
<path style="fill:#767472; stroke:none;" d="M293.333 298.667L293.667 299.333L293.333 298.667z"/>
<path style="fill:#c7c7c7; stroke:none;" d="M140 300L140 309L141 309L140 300z"/>
<path style="fill:#949493; stroke:none;" d="M164 300L165 301L164 300z"/>
<path style="fill:#c7c7c7; stroke:none;" d="M209 300L195 345L196 345C199.112 337.204 199.971 328.61 203.349 321C206.444 314.026 212.395 308.09 209 300z"/>
<path style="fill:#767472; stroke:none;" d="M240 300L241 301L240 300M331 300L332 301L331 300M241 301L242 302L241 301M292 301L293 302L292 301z"/>
<path style="fill:#949493; stroke:none;" d="M331 301L331 309L332 309L331 301z"/>
<path style="fill:#767472; stroke:none;" d="M291.333 303.667L291.667 304.333L291.333 303.667z"/>
<path style="fill:#949493; stroke:none;" d="M164 304L165 305L164 304z"/>
<path style="fill:#767472; stroke:none;" d="M245 304L246 305L245 304M247 305L248 306L247 305M249 306L250 307L249 306M290 306L291 307L290 306z"/>
<path style="fill:#949493; stroke:none;" d="M387 306L385 313L386 313L389 306L387 306z"/>
<path style="fill:#767472; stroke:none;" d="M250 307L251 308L250 307z"/>
<path style="fill:#c7c7c7; stroke:none;" d="M388 307L389 308L388 307z"/>
<path style="fill:#767472; stroke:none;" d="M252 308L253 309L252 308M289 308L290 309L289 308z"/>
<path style="fill:#c7c7c7; stroke:none;" d="M387.333 308.667L387.667 309.333L387.333 308.667z"/>
<path style="fill:#767472; stroke:none;" d="M254 309L255 310L254 309M331.333 309.667L331.667 310.333L331.333 309.667z"/>
<path style="fill:#c7c7c7; stroke:none;" d="M232 310L233 311L232 310z"/>
<path style="fill:#767472; stroke:none;" d="M256 310L257 311L256 310M288 310L289 311L288 310z"/>
<path style="fill:#c7c7c7; stroke:none;" d="M386.333 310.667L386.667 311.333L386.333 310.667z"/>
<path style="fill:#767472; stroke:none;" d="M231 311L232 312L231 311z"/>
<path style="fill:#010101; stroke:none;" d="M232 311L219 332L233 333L232 311z"/>
<path style="fill:#767472; stroke:none;" d="M257 311L258 312L257 311M259 312L260 313L259 312M287 312L288 313L287 312z"/>
<path style="fill:#949493; stroke:none;" d="M332.333 312.667L332.667 313.333L332.333 312.667z"/>
<path style="fill:#767472; stroke:none;" d="M230 313L231 314L230 313z"/>
<path style="fill:#c7c7c7; stroke:none;" d="M231 313L232 314L231 313z"/>
<path style="fill:#949493; stroke:none;" d="M384 313L385 314L384 313z"/>
<path style="fill:#767472; stroke:none;" d="M262 314L263 315L262 314M286 314L287 315L286 314M332.333 314.667L332.667 315.333L332.333 314.667M229 315L230 316L229 315z"/>
<path style="fill:#c7c7c7; stroke:none;" d="M230 315L231 316L230 315z"/>
<path style="fill:#767472; stroke:none;" d="M263 315L264 316L263 315M285 315L286 316L285 315z"/>
<path style="fill:#c7c7c7; stroke:none;" d="M180 316L180 322L181 322L180 316z"/>
<path style="fill:#767472; stroke:none;" d="M228 316L213 336L222 334L222 333L219 332L228 316M264 316L265 317L264 316z"/>
<path style="fill:#949493; stroke:none;" d="M333.333 316.667L333.667 317.333L333.333 316.667z"/>
<path style="fill:#767472; stroke:none;" d="M284 317L285 318L284 317z"/>
<path style="fill:#c7c7c7; stroke:none;" d="M141 318L141 329L142 329L141 318z"/>
<path style="fill:#767472; stroke:none;" d="M267 318L268 319L267 318M283 318L284 319L283 318M333 318L334 319L333 318z"/>
<path style="fill:#949493; stroke:none;" d="M382 318L383 319L382 318z"/>
<path style="fill:#c7c7c7; stroke:none;" d="M227 319L228 320L227 319z"/>
<path style="fill:#767472; stroke:none;" d="M268 319L269 320L268 319M282 319L283 320L282 319z"/>
<path style="fill:#949493; stroke:none;" d="M334 319L335 320L334 319M226 320L227 321L226 320z"/>
<path style="fill:#767472; stroke:none;" d="M270 320L271 321L270 320M280 320L281 321L280 320M334 320L335 321L334 320z"/>
<path style="fill:#949493; stroke:none;" d="M381.333 320.667L381.667 321.333L381.333 320.667z"/>
<path style="fill:#767472; stroke:none;" d="M272 321L273 322L272 321M274 322L274 323L280 322L274 322z"/>
<path style="fill:#949493; stroke:none;" d="M335 321L336 322L335 321M180 322L180 330L181 330L180 322z"/>
<path style="fill:#767472; stroke:none;" d="M335 322L336 323L335 322z"/>
<path style="fill:#949493; stroke:none;" d="M224 323L225 324L224 323M223 324L224 325L223 324M336 324L337 325L336 324M380 324L380 327L381 327L380 324z"/>
<path style="fill:#767472; stroke:none;" d="M336 325L337 326L336 325z"/>
<path style="fill:#c7c7c7; stroke:none;" d="M222 326L223 327L222 326z"/>
<path style="fill:#949493; stroke:none;" d="M221 327L222 328L221 327M233 328L233 332L234 332L233 328z"/>
<path style="fill:#767472; stroke:none;" d="M337 328L338 329L337 328z"/>
<path style="fill:#c7c7c7; stroke:none;" d="M220 329L221 330L220 329z"/>
<path style="fill:#767472; stroke:none;" d="M234 332L237 329L234 332M180 330L180 336L181 336L180 330z"/>
<path style="fill:#949493; stroke:none;" d="M219 330L220 331L219 330z"/>
<path style="fill:#767472; stroke:none;" d="M338 331L339 332L338 331z"/>
<path style="fill:#c7c7c7; stroke:none;" d="M226 332L226 333L229 333L226 332z"/>
<path style="fill:#767472; stroke:none;" d="M233 332L234 333L233 332M231 349L232 352L194 368L194 369L213.715 361.097L235.196 359.479L249 355L249 347L246 346L246 343L258 334L263 335C253.57 323.79 238.051 344.905 231 349z"/>
<path style="fill:#c7c7c7; stroke:none;" d="M230 333L231 334L230 333z"/>
<path style="fill:#767472; stroke:none;" d="M338 333L339 334L338 333M232 334L233 335L232 334M264 334L264 335L267 335L264 334M337 334L338 335L337 334M268 335L268 336L271 336L268 335M336 335L337 336L336 335z"/>
<path style="fill:#949493; stroke:none;" d="M165 336L166 337L165 336z"/>
<path style="fill:#767472; stroke:none;" d="M273.667 336.333L274.333 336.667L273.667 336.333M335 336L336 337L335 336z"/>
<path style="fill:#c7c7c7; stroke:none;" d="M204 342C207.959 343.671 229.364 348.177 229.364 341C229.364 333.698 207.461 339.247 204 342z"/>
<path style="fill:#767472; stroke:none;" d="M234 337L235 338L234 337M277 337L277 338L280 338L277 337M334 337L335 338L334 337M282.667 338.333L283.333 338.667L282.667 338.333M333 338L334 339L333 338z"/>
<path style="fill:#949493; stroke:none;" d="M380 338L381 339L380 338z"/>
<path style="fill:#767472; stroke:none;" d="M235 339L236 340L235 339M287.667 339.333L288.333 339.667L287.667 339.333M332 339L333 340L332 339z"/>
<path style="fill:#949493; stroke:none;" d="M165 340L166 341L165 340z"/>
<path style="fill:#767472; stroke:none;" d="M291 340L292 341L291 340M331 340L332 341L331 340z"/>
<path style="fill:#c7c7c7; stroke:none;" d="M142 341L142 352L143 352L142 341z"/>
<path style="fill:#767472; stroke:none;" d="M294 341L294 342L297 342L294 341M299.667 342.333L300.333 342.667L299.667 342.333M329 342L330 343L329 342M303 343L303 344L306 344L303 343M328 343L329 344L328 343M308.667 344.333L309.333 344.667L308.667 344.333z"/>
<path style="fill:#c7c7c7; stroke:none;" d="M196 345L197 346L196 345z"/>
<path style="fill:#767472; stroke:none;" d="M313 345L314 346L313 345M325 345L326 346L325 345z"/>
<path style="fill:#c7c7c7; stroke:none;" d="M197 346L198 347L197 346z"/>
<path style="fill:#767472; stroke:none;" d="M317 346L318 347L317 346M324 346L325 347L324 346z"/>
<path style="fill:#949493; stroke:none;" d="M165 347L166 348L165 347z"/>
<path style="fill:#c7c7c7; stroke:none;" d="M199 347L200 348L199 347z"/>
<path style="fill:#767472; stroke:none;" d="M320 347L320 348L323 348L320 347z"/>
<path style="fill:#c7c7c7; stroke:none;" d="M202 348L203 349L202 348z"/>
<path style="fill:#767472; stroke:none;" d="M205.667 348.333L206.333 348.667L205.667 348.333z"/>
<path style="fill:#c7c7c7; stroke:none;" d="M319 357C323.839 355.629 326.025 352.486 328 348C323.054 349.287 319.815 351.829 319 357z"/>
<path style="fill:#767472; stroke:none;" d="M212.667 349.333L213.333 349.667L212.667 349.333M249 349L250 350L249 349z"/>
<path style="fill:#949493; stroke:none;" d="M201 350L202 351L201 350z"/>
<path style="fill:#767472; stroke:none;" d="M221 350L221 351L229 351L221 350z"/>
<path style="fill:#c7c7c7; stroke:none;" d="M199 351L200 352L199 351z"/>
<path style="fill:#767472; stroke:none;" d="M198 352L199 353L198 352z"/>
<path style="fill:#949493; stroke:none;" d="M170 353L171 354L170 353M196 353L197 354L196 353M181 354L182 362L183 362L181 354z"/>
<path style="fill:#c7c7c7; stroke:none;" d="M194 354L195 355L194 354z"/>
<path style="fill:#767472; stroke:none;" d="M193 355L194 356L193 355M246 355L247 356L246 355z"/>
<path style="fill:#949493; stroke:none;" d="M191 356L192 357L191 356M189 357L190 358L189 357z"/>
<path style="fill:#767472; stroke:none;" d="M244 357L245 358L244 357z"/>
<path style="fill:#949493; stroke:none;" d="M187 358L188 359L187 358z"/>
<path style="fill:#767472; stroke:none;" d="M240 359L241 360L240 359z"/>
<path style="fill:#949493; stroke:none;" d="M184 360L185 361L184 360z"/>
<path style="fill:#767472; stroke:none;" d="M181 361L182 362L181 361z"/>
<path style="fill:#c7c7c7; stroke:none;" d="M143 363L143 376L144 376L143 363z"/>
<path style="fill:#949493; stroke:none;" d="M374 374L373 376L374 374M320 390L325 395C331.46 384.74 342.841 392.799 351 392.782C357.116 392.77 369.921 381.132 373 376C355.994 378.879 335.59 382.596 320 390z"/>
<path style="fill:#c7c7c7; stroke:none;" d="M370 379L371 380L370 379M369 380L370 381L369 380M368 381L369 382L368 381M366 382L367 383L366 382M364 383L365 384L364 383M362 384L363 385L362 384M361 385L362 386L361 385M144 386L144 390L145 390L144 386M357.667 386.333L358.333 386.667L357.667 386.333M360 386L361 387L360 386M359 388L360 389L359 388M337 389L338 390L337 389M343 389L344 390L343 389M358 389L359 390L358 389M146 390L147 391L146 390M332 390L333 391L332 390M344 390L345 391L344 390M357 390L358 391L357 390M148 391L149 392L148 391M329 391L330 392L329 391M356 391L357 392L356 391M151 392L152 393L151 392z"/>
<path style="fill:#767472; stroke:none;" d="M292 392C285.398 398.297 270.556 406.894 269 416L281 413L282 410L286 411L291 405L290 403L293 403L291 399L294 399L292 392z"/>
<path style="fill:#c7c7c7; stroke:none;" d="M325 392L326 393L325 392M354 392L355 393L354 392M155 393L156 394L155 393M158 394L159 395L158 394M161 395L162 396L161 395z"/>
<path style="fill:#949493; stroke:none;" d="M325 396L326 397L325 396z"/>
<path style="fill:#c7c7c7; stroke:none;" d="M173 399L174 400L173 399z"/>
<path style="fill:#767472; stroke:none;" d="M294 400L295 401L294 400z"/>
<path style="fill:#c7c7c7; stroke:none;" d="M179 401L180 402L179 401z"/>
<path style="fill:#949493; stroke:none;" d="M290 401L291 402L290 401z"/>
<path style="fill:#c7c7c7; stroke:none;" d="M182 402L183 403L182 402M187 404L188 405L187 404M197 407L198 408L197 407M200 408L201 409L200 408M205 410L206 411L205 410M208 411L209 412L208 411z"/>
<path style="fill:#767472; stroke:none;" d="M283 411L284 412L283 411z"/>
<path style="fill:#949493; stroke:none;" d="M272.667 413.333L273.333 413.667L272.667 413.333z"/>
<path style="fill:#c7c7c7; stroke:none;" d="M218 414L219 415L218 414z"/>
<path style="fill:#767472; stroke:none;" d="M275 415L276 416L275 415M277 415L278 416L277 415z"/>
<path style="fill:#c7c7c7; stroke:none;" d="M223 416L224 417L223 416z"/>
<path style="fill:#767472; stroke:none;" d="M266 416L268 418L268 416L266 416M270 416L271 417L270 416z"/>
<path style="fill:#c7c7c7; stroke:none;" d="M226 417L227 418L226 417M229 418L230 419L229 418M232 419L233 420L232 419M238 421L239 422L238 421M241 422L242 423L241 422M244 423L245 424L244 423z"/>
<path style="fill:#949493; stroke:none;" d="M309 423L312 426L309 423M330 423L329 425L330 423z"/>
<path style="fill:#c7c7c7; stroke:none;" d="M247 424L248 425L247 424M250 425L251 426L250 425z"/>
<path style="fill:#949493; stroke:none;" d="M312 426C317.057 431.73 324.425 430.772 329 425L312 426z"/>
<path style="fill:#c7c7c7; stroke:none;" d="M253 426L254 427L253 426M256 427L257 428L256 427M259 428L260 429L259 428M262 429L263 430L262 429M315 429L316 430L315 429M324 429L325 430L324 429M318 430L318 431L323 431L318 430z"/>
</svg>
